<?xml version="1.0" encoding="utf-8"?>
<!-- Generator: Adobe Illustrator 21.0.0, SVG Export Plug-In . SVG Version: 6.00 Build 0)  -->
<svg version="1.1" xmlns="http://www.w3.org/2000/svg" xmlns:xlink="http://www.w3.org/1999/xlink" x="0px" y="0px"
	 viewBox="0 0 792 420" xml:space="preserve">
<style type="text/css">
	.st0{fill:#332A4D;}
	.st1{fill:none;stroke:#F498C0;stroke-width:6;stroke-miterlimit:10;}
	.st2{fill-rule:evenodd;clip-rule:evenodd;fill:#F498C0;}
	.st3{fill:none;}
	.st4{fill:#FFFFFF;}
	.st5{font-family:'LemonMilk';}
	.st6{font-size:24px;}
	.st7{fill-rule:evenodd;clip-rule:evenodd;fill:#A97C50;}
	.st8{fill-rule:evenodd;clip-rule:evenodd;fill:#8DC63F;}
	.st9{fill-rule:evenodd;clip-rule:evenodd;fill:#D1D3D4;}
	.st10{fill:#A97C50;}
	.st11{fill:#365460;}
	.st12{fill:#FFDE17;}
	.st13{fill:#68BD45;}
	.st14{fill:#D1D3D4;}
	.st15{fill:#C2E8F8;}
	.st16{fill:none;stroke:#8492C7;stroke-width:0.5;stroke-miterlimit:10;}
	.st17{fill-rule:evenodd;clip-rule:evenodd;fill:#8492C7;}
	.st18{fill-rule:evenodd;clip-rule:evenodd;fill:none;stroke:#8492C7;stroke-width:0.5;stroke-miterlimit:10;}
	.st19{fill-rule:evenodd;clip-rule:evenodd;fill:none;stroke:#F1F2F2;stroke-width:2;stroke-miterlimit:10;}
	.st20{fill-rule:evenodd;clip-rule:evenodd;fill:#F1F2F2;stroke:#F1F2F2;stroke-width:0.5;stroke-miterlimit:10;}
	.st21{fill-rule:evenodd;clip-rule:evenodd;fill:none;stroke:#F1F2F2;stroke-width:3;stroke-miterlimit:10;}
	.st22{fill-rule:evenodd;clip-rule:evenodd;fill:#C2E8F8;}
	.st23{fill-rule:evenodd;clip-rule:evenodd;fill:#8CD6F5;}
	.st24{fill-rule:evenodd;clip-rule:evenodd;fill:#FEFEFE;}
	.st25{fill-rule:evenodd;clip-rule:evenodd;fill:#FFFFFF;}
	.st26{fill-rule:evenodd;clip-rule:evenodd;fill:#FDFEFE;}
	.st27{fill-rule:evenodd;clip-rule:evenodd;fill:#F9FCFE;}
	.st28{fill-rule:evenodd;clip-rule:evenodd;fill:#DBF1FB;}
	.st29{fill-rule:evenodd;clip-rule:evenodd;fill:#8ED6F5;}
	.st30{fill:none;stroke:#C2E8F8;stroke-miterlimit:10;}
	.st31{fill:none;stroke:#C2E8F8;stroke-miterlimit:10;stroke-dasharray:12;}
	.st32{fill-rule:evenodd;clip-rule:evenodd;fill:#6FB2CB;}
	.st33{fill-rule:evenodd;clip-rule:evenodd;fill:#BDE6F7;}
	.st34{fill-rule:evenodd;clip-rule:evenodd;fill:#76B8C8;}
	.st35{fill-rule:evenodd;clip-rule:evenodd;fill:#A3D6EA;}
	.st36{fill-rule:evenodd;clip-rule:evenodd;fill:#D37A9F;}
	.st37{fill-rule:evenodd;clip-rule:evenodd;fill:#799AC2;}
	.st38{fill-rule:evenodd;clip-rule:evenodd;fill:#444648;}
	.st39{fill-rule:evenodd;clip-rule:evenodd;fill:#393C3C;}
	.st40{fill-rule:evenodd;clip-rule:evenodd;fill:#CAE3F6;}
	.st41{fill-rule:evenodd;clip-rule:evenodd;fill:#D17CA7;}
	.st42{fill-rule:evenodd;clip-rule:evenodd;fill:#8296C6;}
	.st43{fill-rule:evenodd;clip-rule:evenodd;fill:#7AB4C8;}
	.st44{fill-rule:evenodd;clip-rule:evenodd;fill:#82B7CB;}
	.st45{fill-rule:evenodd;clip-rule:evenodd;fill:#7B9CBE;}
	.st46{fill-rule:evenodd;clip-rule:evenodd;fill:#7B9DBE;}
	.st47{fill-rule:evenodd;clip-rule:evenodd;fill:#7C99C0;}
	.st48{fill-rule:evenodd;clip-rule:evenodd;fill:#8593C8;}
	.st49{fill-rule:evenodd;clip-rule:evenodd;fill:#C1E6F5;}
	.st50{fill-rule:evenodd;clip-rule:evenodd;fill:#C0E5F4;}
	.st51{fill-rule:evenodd;clip-rule:evenodd;fill:#7799BC;}
	.st52{fill-rule:evenodd;clip-rule:evenodd;fill:#B0CFEC;}
	.st53{fill-rule:evenodd;clip-rule:evenodd;fill:#BFE4F3;}
	.st54{fill-rule:evenodd;clip-rule:evenodd;fill:#BEE3F3;}
	.st55{fill-rule:evenodd;clip-rule:evenodd;fill:#BEE4F3;}
	.st56{fill-rule:evenodd;clip-rule:evenodd;fill:#BEE3F2;}
	.st57{fill-rule:evenodd;clip-rule:evenodd;fill:#B3D0ED;}
	.st58{fill-rule:evenodd;clip-rule:evenodd;fill:#4A7584;}
	.st59{fill-rule:evenodd;clip-rule:evenodd;fill:#DCEEF5;}
	.st60{fill-rule:evenodd;clip-rule:evenodd;fill:#C7CBE2;}
	.st61{fill-rule:evenodd;clip-rule:evenodd;fill:#C8D3D6;}
	.st62{fill-rule:evenodd;clip-rule:evenodd;fill:#CDD6DB;}
	.st63{fill-rule:evenodd;clip-rule:evenodd;fill:#365460;}
	.st64{fill-rule:evenodd;clip-rule:evenodd;fill:#365561;}
	.st65{fill-rule:evenodd;clip-rule:evenodd;fill:#365560;}
	.st66{fill-rule:evenodd;clip-rule:evenodd;fill:#375461;}
	.st67{fill-rule:evenodd;clip-rule:evenodd;fill:#375561;}
	.st68{fill:#FFDE17;stroke:#9B58A3;stroke-miterlimit:10;stroke-opacity:0;}
	.st69{fill:none;stroke:#9B58A3;stroke-miterlimit:10;stroke-opacity:0;}
</style>
<g id="Layer_3">
	<line class="st1" x1="460.5" y1="351.7" x2="460.5" y2="382.6"/>
	<line class="st1" x1="556.3" y1="351.7" x2="556.3" y2="382.6"/>
	<a xlink:href="#info">
		<g id="infoGroup" class="bounceGroup">
			<rect x="428.1" y="371.7" class="st2" width="162.1" height="43.5"/>
			<rect x="482.9" y="383.6" class="st3" width="57.8" height="48"/>
			<text transform="matrix(1 0 0 1 482.9169 402.4888)" class="st4 st5 st6">Info</text>
		</g>
	</a>
	<line class="st1" x1="220" y1="350.1" x2="220" y2="381"/>
	<line class="st1" x1="315.9" y1="350.1" x2="315.9" y2="381"/>
	<a xlink:href="https://goo.gl/forms/0QKWXewShleg9mNS2" target="_blank">
		<g id="applyGroup" class="bounceGroup">
			<rect x="187.7" y="370.6" class="st2" width="162.1" height="43.5"/>
			<rect x="229.5" y="382.6" class="st3" width="82.5" height="48"/>
			<text transform="matrix(1 0 0 1 229.4575 401.4526)" class="st4 st5 st6">APPLY</text>
		</g>
	</a>
	<rect x="65.4" y="324.6" class="st7" width="654" height="27"/>
	<rect x="65.4" y="262.5" class="st8" width="654" height="62.2"/>
	<ellipse class="st9" cx="216" cy="274.6" rx="32" ry="9.4"/>
	<ellipse class="st9" cx="152" cy="295.9" rx="32" ry="9.4"/>
	<g>
		<g>
			<path class="st10" d="M515,183.9c-25.1,0-45.5,6.5-45.5,14.4c0,8,20.4,14.4,45.5,14.4s45.5-6.5,45.5-14.4
				C560.5,190.4,540.2,183.9,515,183.9z M515.2,207.2c-22,0-39.8-4.7-39.8-10.6c0-5.8,17.8-10.6,39.8-10.6c22,0,39.8,4.7,39.8,10.6
				C555,202.5,537.2,207.2,515.2,207.2z"/>
			<path class="st10" d="M515.4,276.7c-14.6,0-26.5,3.8-26.5,8.4c0,4.6,11.9,8.4,26.5,8.4c14.6,0,26.5-3.8,26.5-8.4
				C541.9,280.5,530,276.7,515.4,276.7z M515.5,290.3c-12.8,0-23.2-2.8-23.2-6.2c0-3.4,10.4-6.2,23.2-6.2c12.8,0,23.2,2.8,23.2,6.2
				C538.6,287.5,528.3,290.3,515.5,290.3z"/>
			<path class="st10" d="M469.5,198.4l9.9,19.1c0,0-12.4,14.9-7.9,35.2c4.6,20.3,17.3,32.5,17.3,32.5s15.8,11.1,39,5.2
				c23.2-5.9-9.5-80.5-9.5-80.5S478.3,210.2,469.5,198.4z"/>
			<path class="st10" d="M560.5,199.9l-9.9,19.1c0,0,12.4,14.9,7.9,35.2c-4.6,20.3-17.3,32.5-17.3,32.5s-15.8,11.1-39,5.2
				c-23.2-5.9,9.5-80.5,9.5-80.5S551.8,211.7,560.5,199.9z"/>
		</g>
		<path class="st11" d="M552.4,263.2c0.1,0.3,0.2,0.7,0.2,1c0,5-16.7,9-37.3,9c-20.6,0-37.3-4-37.3-9c0-0.3,0.1-0.7,0.2-1h-4.9
			c-0.6,0.8-0.8,1.6-0.8,2.5c0,6.8,19.1,12.3,42.7,12.3c23.6,0,42.7-5.5,42.7-12.3c0-0.8-0.3-1.7-0.8-2.5H552.4z"/>
		<path class="st11" d="M549.1,217.4c0.1,0.3,0.2,0.6,0.2,0.9c0,4.5-15.2,8.2-33.9,8.2c-18.7,0-33.9-3.7-33.9-8.2
			c0-0.3,0.1-0.6,0.2-0.9h-4.5c-0.5,0.7-0.8,1.5-0.8,2.2c0,6.2,17.4,11.2,38.8,11.2c21.4,0,38.8-5,38.8-11.2c0-0.8-0.3-1.5-0.8-2.2
			H549.1z"/>
		<ellipse class="st12" cx="504.4" cy="191.3" rx="31.8" ry="15.3"/>
		<ellipse class="st12" cx="528.7" cy="196.3" rx="26.4" ry="10.3"/>
		<ellipse class="st12" cx="539.1" cy="221.8" rx="2.8" ry="6"/>
	</g>
	<path class="st13" d="M677.2,319.2c0,0,11.2-28.5,0-47.4c3.7,33.6-5.6,47.4-5.6,47.4H677.2z"/>
	<path class="st13" d="M671.9,307.9c0,0,11.2-28.5,0-47.4c3.7,33.6-5.6,47.4-5.6,47.4H671.9z"/>
	<path class="st13" d="M688,312.7c0,0,11.2-28.5,0-47.4c3.7,33.6-5.6,47.4-5.6,47.4H688z"/>
	<path class="st13" d="M695.4,316.9c0,0,10.5-21.5,0-35.7c3.5,25.3-5.3,35.7-5.3,35.7H695.4z"/>
	<path class="st13" d="M561.9,280.4c0,0,10.5-21.5,0-35.7c3.5,25.3-5.3,35.7-5.3,35.7H561.9z"/>
	<path class="st13" d="M566.8,275.4c0,0,10.5-21.5,0-35.7c3.5,25.3-5.3,35.7-5.3,35.7H566.8z"/>
	<path class="st13" d="M482,319.7c0,0,10.5-21.5,0-35.7c3.5,25.3-5.3,35.7-5.3,35.7H482z"/>
	<path class="st13" d="M275.5,292.5c0,0,10.5-21.5,0-35.7c3.5,25.3-5.3,35.7-5.3,35.7H275.5z"/>
	<path class="st13" d="M87.1,301.3c0,0,10.5-21.5,0-35.7c3.5,25.3-5.3,35.7-5.3,35.7H87.1z"/>
	<path class="st13" d="M536.5,294.6c0,0,10.5-21.5,0-35.7c3.5,25.3-5.3,35.7-5.3,35.7H536.5z"/>
	<path class="st13" d="M309.1,291.9c0,0,10.5-21.5,0-35.7c3.5,25.3-5.3,35.7-5.3,35.7H309.1z"/>
	<path class="st13" d="M458.3,319.6c0,0,11.2-28.5,0-47.4c3.7,33.6-5.6,47.4-5.6,47.4H458.3z"/>
	<path class="st13" d="M476.7,307.2c0,0,11.2-28.5,0-47.4c3.7,33.6-5.6,47.4-5.6,47.4H476.7z"/>
	<path class="st13" d="M297.6,301.7c0,0,11.2-28.5,0-47.4c3.7,33.6-5.6,47.4-5.6,47.4H297.6z"/>
	<path class="st13" d="M92.7,307.2c0,0,11.2-28.5,0-47.4c3.7,33.6-5.6,47.4-5.6,47.4H92.7z"/>
	<path class="st13" d="M671.2,296.7c0,0-11.2-28.5,0-47.4c-3.7,33.6,5.6,47.4,5.6,47.4H671.2z"/>
	<path class="st13" d="M706.1,317.3c0,0-11.2-28.5,0-47.4c-3.7,33.6,5.6,47.4,5.6,47.4H706.1z"/>
	<path class="st13" d="M683,318.8c0,0-11.2-28.5,0-47.4c-3.7,33.6,5.6,47.4,5.6,47.4H683z"/>
	<path class="st13" d="M553.5,284.7c0,0-11.2-28.5,0-47.4c-3.7,33.6,5.6,47.4,5.6,47.4H553.5z"/>
	<path class="st13" d="M700.5,295.9c0,0-12-21.3,0-35.4c-4,25.1,6,35.4,6,35.4H700.5z"/>
	<path class="st13" d="M665.6,320.2c0,0-12-21.3,0-35.4c-4,25.1,6,35.4,6,35.4H665.6z"/>
	<path class="st13" d="M660,284c0,0-12-21.3,0-35.4c-4,25.1,6,35.4,6,35.4H660z"/>
	<path class="st13" d="M314.1,302.9c0,0-12-21.3,0-35.4c-4,25.1,6,35.4,6,35.4H314.1z"/>
	<path class="st13" d="M106.6,305.5c0,0-12-21.3,0-35.4c-4,25.1,6,35.4,6,35.4H106.6z"/>
	<path class="st13" d="M547.7,293c0,0-12-21.3,0-35.4c-4,25.1,6,35.4,6,35.4H547.7z"/>
	<path class="st13" d="M302.8,301.7c0,0-12-21.3,0-35.4c-4,25.1,6,35.4,6,35.4H302.8z"/>
	<path class="st13" d="M493.5,313.6c0,0-12-21.3,0-35.4c-4,25.1,6,35.4,6,35.4H493.5z"/>
	<path class="st13" d="M284.7,295.7c0,0-12-21.3,0-35.4c-4,25.1,6,35.4,6,35.4H284.7z"/>
	<path class="st13" d="M472.2,319.9c0,0-11.2-28.5,0-47.4c-3.7,33.6,5.6,47.4,5.6,47.4H472.2z"/>
	<path class="st13" d="M291.6,286.2c0,0-11.2-28.5,0-47.4c-3.7,33.6,5.6,47.4,5.6,47.4H291.6z"/>
	<path class="st13" d="M80.8,317.1c0,0-11.2-28.5,0-47.4c-3.7,33.6,5.6,47.4,5.6,47.4H80.8z"/>
	<path class="st13" d="M106.6,292.9c0,0-11.2-28.5,0-47.4c-3.7,33.6,5.6,47.4,5.6,47.4H106.6z"/>
	<path class="st13" d="M179.4,289.6c0,0-11.2-28.5,0-47.4c-3.7,33.6,5.6,47.4,5.6,47.4H179.4z"/>
	<g>
		<polygon class="st14" points="551.8,288.2 607,318.1 667.3,293.6 612.5,263.2 		"/>
		<g>
			<polygon class="st0" points="565.8,295.7 573.2,292.3 579.9,295.9 572,299.4 			"/>
			<polygon class="st0" points="581.9,289.9 589.2,286.4 596,290 588.1,293.6 			"/>
			<polygon class="st0" points="597,283.3 604.3,279.9 611,283.5 603.1,287 			"/>
			<polygon class="st0" points="612,276.9 619.4,273.4 626.1,277 618.2,280.6 			"/>
			<polygon class="st0" points="610.9,284 618.2,280.6 625,284.2 617.1,287.7 			"/>
			<polygon class="st0" points="596,290.1 603.3,286.7 610,290.3 602.1,293.8 			"/>
			<polygon class="st0" points="580.9,297.3 588.2,293.8 595,297.4 587.1,301 			"/>
			<polygon class="st0" points="626.1,277.9 633.5,274.4 640.2,278 632.3,281.6 			"/>
		</g>
		<g>
			<polygon class="st0" points="579.9,303.1 587.2,299.7 594,303.3 586.1,306.8 			"/>
			<polygon class="st0" points="596,297.3 603.3,293.8 610,297.4 602.1,301 			"/>
			<polygon class="st0" points="611,290.7 618.4,287.3 625.1,290.9 617.2,294.4 			"/>
			<polygon class="st0" points="626.1,284.3 633.5,280.8 640.2,284.4 632.3,288 			"/>
			<polygon class="st0" points="625,291.4 632.3,288 639,291.6 631.1,295.1 			"/>
			<polygon class="st0" points="610,297.5 617.4,294.1 624.1,297.7 616.2,301.3 			"/>
			<polygon class="st0" points="595,304.7 602.3,301.2 609,304.8 601.1,308.4 			"/>
			<polygon class="st0" points="640.2,285.3 647.5,281.8 654.3,285.4 646.4,289 			"/>
		</g>
		<g>
			<polygon class="st0" points="593,311.3 600.3,307.9 607,311.5 599.1,315 			"/>
			<polygon class="st0" points="609,305.5 616.4,302 623.1,305.6 615.2,309.2 			"/>
			<polygon class="st0" points="624.1,298.9 631.5,295.5 638.2,299.1 630.3,302.6 			"/>
			<polygon class="st0" points="639.2,292.5 646.5,289 653.3,292.6 645.4,296.2 			"/>
			<polygon class="st0" points="638,299.6 645.4,296.2 652.1,299.8 644.2,303.3 			"/>
			<polygon class="st0" points="623.1,305.7 630.5,302.3 637.2,305.9 629.3,309.4 			"/>
			<polygon class="st0" points="608,312.9 615.4,309.4 622.1,313 614.2,316.6 			"/>
			<polygon class="st0" points="653.3,293.5 660.6,290 667.3,293.6 659.4,297.2 			"/>
		</g>
		<g>
			<polygon class="st0" points="551.8,288.2 559.1,284.7 565.9,288.3 558,291.9 			"/>
			<polygon class="st0" points="567.9,282.3 575.2,278.9 581.9,282.5 574,286 			"/>
			<polygon class="st0" points="582.9,275.7 590.3,272.3 597,275.9 589.1,279.4 			"/>
			<polygon class="st0" points="598,269.3 605.3,265.9 612.1,269.5 604.2,273 			"/>
			<polygon class="st0" points="596.8,276.4 604.2,273 610.9,276.6 603,280.1 			"/>
			<polygon class="st0" points="581.9,282.6 589.3,279.2 596,282.7 588.1,286.3 			"/>
			<polygon class="st0" points="566.9,289.7 574.2,286.3 580.9,289.9 573,293.4 			"/>
			<polygon class="st0" points="612.1,270.3 619.4,266.9 626.2,270.5 618.3,274 			"/>
		</g>
	</g>
	<ellipse class="st15" cx="565.9" cy="288.3" rx="6" ry="3.9"/>
	<ellipse class="st15" cx="573.9" cy="303.1" rx="6" ry="3.9"/>
	<ellipse class="st15" cx="527.7" cy="313" rx="6" ry="3.9"/>
	<ellipse class="st15" cx="604.9" cy="276.6" rx="6" ry="3.9"/>
	<ellipse class="st15" cx="633.2" cy="304.8" rx="6" ry="3.9"/>
	<ellipse class="st11" cx="560.5" cy="304.8" rx="6" ry="3.9"/>
	<ellipse class="st11" cx="574.9" cy="312" rx="6" ry="3.9"/>
	<ellipse class="st11" cx="580.9" cy="290.4" rx="6" ry="3.9"/>
	<ellipse class="st11" cx="554" cy="299.7" rx="6" ry="3.9"/>
	<ellipse class="st11" cx="637.2" cy="289" rx="6" ry="3.9"/>
	<ellipse class="st11" cx="539.1" cy="305.9" rx="6" ry="3.9"/>
	<path class="st16" d="M318.8,269.8c0,0-48.8-1.3-50.2,5.4c-1.3,6.7-24,4-20.7,8.7c3.3,4.7,8.7,8.4,18,11.9
		c9.3,3.5,11.3,2.7,11.3,7.8s-1.3,10.2-4.7,9.9s-10,3.6-16,0c-6-3.6-13.3-4.8-16.7-4.9"/>
	<rect x="233.7" y="308.4" class="st17" width="7.3" height="1.3"/>
	<ellipse class="st17" cx="233.3" cy="310.7" rx="3" ry="2.3"/>
	
		<rect x="333.7" y="311.7" transform="matrix(8.349122e-02 -0.9965 0.9965 8.349122e-02 -7.8099 622.1509)" class="st17" width="1.3" height="7.3"/>
	
		<ellipse transform="matrix(8.350065e-02 -0.9965 0.9965 8.350065e-02 -2.7164 625.048)" class="st17" cx="338.4" cy="314" rx="2.3" ry="3"/>
	<path class="st18" d="M275.2,299.2c0,0,6.4,6.2,10.8,7.5c4.3,1.3,23.3-4.8,24.7-3.8c1.3,1,17.8,8.2,20.4,12.1"/>
	<g>
		<ellipse class="st19" cx="215.2" cy="255.4" rx="21" ry="6"/>
		<path class="st20" d="M194.2,255.4c0,0,2.4,20.6,21,23.4c19.3-1.3,21-23.4,21-23.4s-4.4,8.3-21,6
			C198.6,259.1,199.9,258,194.2,255.4z"/>
		<path class="st21" d="M235.4,256.4c0,0,5.6-3.5,5.6-1.3c0,2.2-0.6,7.5-2.8,9.2c-2.2,1.6-6.4,2.1-6.4,2.1"/>
	</g>
	<ellipse class="st7" cx="216.1" cy="258.5" rx="14.1" ry="2.1"/>
	<g>
		<ellipse class="st19" cx="152.3" cy="275.4" rx="21" ry="6"/>
		<path class="st20" d="M173.3,275.4c0,0-2.4,20.6-21,23.4c-19.3-1.3-21-23.4-21-23.4s4.4,8.3,21,6C168.9,279,167.6,278,173.3,275.4
			z"/>
		<path class="st21" d="M132.1,276.4c0,0-5.6-3.5-5.6-1.3c0,2.2,0.6,7.5,2.8,9.2c2.2,1.6,6.4,2.1,6.4,2.1"/>
	</g>
	<ellipse class="st7" cx="151.9" cy="276.7" rx="19.6" ry="5.2"/>
	<ellipse class="st2" cx="179.7" cy="295.9" rx="6.3" ry="4.2"/>
	<polygon class="st2" points="191,298.4 184.6,294.8 190.9,291.1 	"/>
	<polygon class="st2" points="168.4,292.5 174.7,296.1 168.4,299.8 	"/>
	<ellipse class="st2" cx="202" cy="308.4" rx="6.3" ry="4.2"/>
	<polygon class="st2" points="213.3,310.9 207,307.3 213.3,303.6 	"/>
	<polygon class="st2" points="190.7,305.1 197,308.7 190.7,312.4 	"/>
	<path class="st13" d="M187.5,291.7c0,0-12-21.3,0-35.4c-4,25.1,6,35.4,6,35.4H187.5z"/>
	<path class="st13" d="M86.4,282.9c0,0-12-21.3,0-35.4c-4,25.1,6,35.4,6,35.4H86.4z"/>
	<path class="st13" d="M197.3,298.3c0,0,10.5-21.5,0-35.7c3.5,25.3-5.3,35.7-5.3,35.7H197.3z"/>
	<g>
		<path class="st22" d="M629.8,115.2c-3.1,1-6.2,1.5-9.4,1.5c-35.9,0-71.8,0-107.7-0.1c-3,0-5.1,1-6.9,2.9
			c-4.8,5-9.4,10.1-14.1,15.1c-0.3-0.3-0.7-0.5-1-0.8c0-4.9-0.1-9.9,0-14.8c0.1-1.9-0.4-2.6-2.4-2.4c-6.1,0.4-11.9-0.5-17.2-4
			c-5.3-3.5-8.4-8.2-9.7-14.3c-0.6-0.5-0.3-1.4-0.8-2c0-9.1,0-18.2,0-27.2c0.5-0.5,0.3-1.4,0.8-2c1.7-9.7,9.8-16.2,18.8-17.9
			c2.4-0.5,4.8-0.4,7.3-0.4c44.4,0,88.8,0,133.3,0c10.3,0,19,5.6,22.6,14.5c1,2.5,1.6,5,1.6,7.8c-0.1,3.1,0,6.1,0,9.2
			c-0.3,0.7-1,1-1.7,1c-9.7,0.6-12.8,8.2-12.8,15.2c0,5.5-0.3,10.9,0.2,16.4C630.7,113.7,630.6,114.6,629.8,115.2z"/>
		<path class="st23" d="M629.8,115.2c-0.8-6.3-0.4-12.6-0.4-19c0-2.4,0.3-4.8,1.3-7.1c2.6-6.4,7.6-9,14.3-8.8
			c19.8,0,39.6,0,59.5,0.1c1.3,0,2-0.5,2.7-1.4c2.8-3.5,6.3-6.4,9.2-10.7c0,3.9,0.1,7.2,0,10.4c0,1.3,0.3,1.9,1.7,1.7
			c8.4-1.4,15.8,7.2,15.3,15.9c-0.3,5.9,0.4,11.9-0.4,17.8c-0.9,6.9-7.9,12.1-14.3,12c-24.6-0.2-49.2-0.1-73.8-0.1
			c-7.8,0-11.8-2.8-14.6-10C630.2,115.7,630,115.4,629.8,115.2z"/>
		<path class="st24" d="M627.5,68.8c-1.5,2.5-2.9,2.3-5.1,0.7c-7.8-5.5-16.3-5-23.4,2c-4,3.9-4,11.6-0.1,16.7
			c4.7,6.1,15.6,7.9,21.9,3.5c2-1.4,3.3-3.3,4.2-5.5c0.6-1.4,0.4-2.2-1.4-2.1c-2.3,0.1-4.7,0-7,0c-1.2,0-2.2-0.2-2.2-1.7
			c0-1.7,1.2-1.6,2.3-1.6c3.6,0,7.2,0,10.8,0c2.3,0,2.6,0.5,2.3,2.8c-1,6.9-7,12.5-13.1,13.5c-9.1,1.6-18.1-1.7-22-8.9
			c-5.1-9.5-1.1-22.5,12.2-25.3C614.6,61.4,621.5,63.4,627.5,68.8z"/>
		<path class="st25" d="M495.8,80.3c0,4.8,0,9.6,0,14.3c0,1.2,0,2.2-1.6,2.2c-1.6,0-1.7-1-1.7-2.2c0-3.9,0-7.8,0-11.7
			c0-1.5-0.5-2.1-2-2.1c-4.6,0.1-9.2,0.1-13.9,0c-1.6,0-2,0.6-2,2.1c0.1,3.8,0,7.7,0,11.5c0,1.3-0.1,2.4-1.8,2.4
			c-1.7,0-1.5-1.3-1.5-2.3c0-9.6,0-19.1,0-28.7c0-1.2-0.1-2.4,1.7-2.4c1.7,0,1.6,1.2,1.6,2.3c0,3.2,0.1,6.4,0,9.6
			c0,1.6,0.5,2.2,2.2,2.2c4.5-0.1,8.9-0.1,13.4,0c1.7,0,2.4-0.6,2.4-2.4c-0.1-3.1,0-6.3,0-9.4c0-1.2-0.1-2.4,1.7-2.4
			c1.7,0,1.6,1.2,1.6,2.3C495.8,70.6,495.8,75.4,495.8,80.3z"/>
		<path class="st24" d="M529.7,84.4c0,3.4,0,6.9,0,10.3c0,1.1,0,2.1-1.5,2.1c-1.3,0-1.8-0.7-1.8-1.9c0.1-1.8-0.7-1.6-1.8-0.8
			c-6.3,4.5-11.9,4.4-18-0.4c-5.4-4.2-5-15.2,0.7-19.1c6.5-4.5,10.9-4.5,17.4,0.1c1.3,0.9,1.8,0.7,1.7-0.9c0-1.2,0.5-1.9,1.8-1.9
			c1.6,0,1.5,1.1,1.5,2.1C529.7,77.5,529.7,81,529.7,84.4z"/>
		<path class="st25" d="M588.7,72.1c-2.7,2.3-4.8,4.3-7.2,6.1c-1.9,1.5-3.8,3-5.6,4.6c-0.9,0.8-0.9,1.4,0.1,2.2
			c4,3.3,7.8,6.7,11.7,10c0.4,0.3,1,0.7,0.8,1.3c-0.2,0.7-0.9,0.4-1.4,0.5c-1.3,0.1-2.4-0.1-3.4-1.1c-3.3-3-6.8-5.9-10.2-8.9
			c-0.4-0.4-0.8-0.8-1.4-0.6c-0.6,0.3-0.5,0.9-0.5,1.4c0,2.4,0,4.9,0,7.3c0,1-0.2,1.9-1.5,1.8c-1.2,0-1.4-0.8-1.4-1.8
			c0-10.3,0-20.5,0-30.8c0-0.9,0.2-1.7,1.4-1.7c1.3,0,1.5,0.8,1.5,1.9c0,4.9,0,9.7,0,14.6c0,0.7-0.3,1.7,0.6,2.1
			c0.9,0.4,1.6-0.4,2.2-1c2.8-2.7,5.9-5.1,9-7.5C584.8,71.5,586.4,72,588.7,72.1z"/>
		<path class="st24" d="M550.7,94c2.7,0.3,5.4-0.5,7.5-2.8c1.1-1.2,2.2-1.1,3.2,0c1,1.2-0.4,1.6-0.9,2.2c-5.4,6-20.2,5.4-23.7-4.5
			c-2.5-7,1.2-14.7,8.4-16.8c5.7-1.6,11-1.4,15.5,3.1c0.6,0.6,1.9,1.1,0.7,2.2c-0.9,0.9-1.8,0.9-2.8-0.1c-4.9-4.3-11-4-15.5-0.7
			c-3.3,2.4-4.2,6.7-3,10.8c1.2,3.8,5,6.1,8.7,6.4C549.3,94.1,549.8,94,550.7,94z"/>
		<path class="st26" d="M679.4,99.2c-1.9,0-3.8,0.1-5.6,0c-2.1-0.1-2.2,0.8-1.6,2.4c1.2,3.1,5.5,4.9,8.8,3.5
			c1.3-0.5,2.5-1.2,3.5-2.4c0.5-0.6,1.1-1,1.8-0.4c0.8,0.7,0.1,1.3-0.3,1.8c-1.9,2.8-6.3,4.1-10.1,3c-3.8-1.1-6.2-4.2-6.3-8.1
			c-0.1-3.8,2.4-7.1,6.1-8.3c5-1.6,10.6,1.3,11.6,5.9c0.4,1.7,0.1,2.7-2,2.5C683.3,99,681.3,99.2,679.4,99.2z"/>
		<path class="st26" d="M658.5,99.2c-2.1,0-4.2,0-6.3,0c-1.3,0-1.7,0.5-1.3,1.7c0.7,2.2,2,3.8,4.4,4.4c2.8,0.8,5.1,0,7.1-1.9
			c0.4-0.4,0.7-0.9,1.1-1.2c0.7-0.5,1.4-0.3,1.9,0.2c0.6,0.5,0,1.1-0.3,1.4c-3.2,3.6-8.2,5.2-12.9,2.2c-3.9-2.4-4.8-8.3-2-12.3
			c2.6-3.8,8.4-4.6,12.4-1.9c2.1,1.4,3.3,3.2,3.8,5.7c0.2,1.1-0.2,1.6-1.3,1.6C662.9,99.1,660.7,99.2,658.5,99.2
			C658.5,99.2,658.5,99.2,658.5,99.2z"/>
		<path class="st24" d="M706.5,101c0,1.6,0,3.3,0,4.9c0,0.6-0.1,1.1-0.8,1.2c-0.9,0.1-1-0.6-1-1.2c0-2.5,0-5,0-7.5
			c-0.1-4.1-1.4-5.9-4.6-6.1c-2.9-0.2-5.3,2.1-5.9,5.5c-0.4,2.5-0.1,5-0.2,7.5c0,0.9,0.2,2-1.3,1.9c-1.3-0.1-1.1-1.1-1.1-1.9
			c0-4.1,0-8.3,0-12.4c0-0.8-0.3-1.8,1-2c1-0.1,1.3,0.4,1.4,1.4c0.2,1.2,0.8,0.6,1.3,0.2c0.9-0.9,2-1.5,3.2-1.8
			c4.4-1.1,7.9,1.4,8.1,6C706.6,98,706.5,99.5,706.5,101z"/>
		<path class="st26" d="M717.5,103c2.6-3.6,4-7.3,5.6-10.8c0.4-0.9,1-1.9,2-1.3c1,0.5,0,1.4-0.2,2c-2.4,6.4-5.9,12.4-8.6,18.7
			c-0.2,0.5-0.5,1-0.9,1.4c-0.3,0.4-0.9,0.4-1.3,0.2c-0.6-0.3-0.3-0.8-0.1-1.2c0-0.1,0.1-0.3,0.2-0.4c2.8-4,2-7.8-0.3-11.7
			c-1.5-2.5-2.1-5.6-3.9-7.9c-0.2-0.3-0.4-0.8,0.1-1c0.7-0.2,1.6-0.4,2.1,0.4c0.7,1.2,1.3,2.5,1.8,3.8
			C715.1,97.6,716.3,100.2,717.5,103z"/>
		<path class="st27" d="M645.4,92.5c-2.2-0.2-3.1,0.6-2.9,2.9c0.2,3,0.1,6,0,8.9c0,1,0.8,2.7-1.2,2.7c-1.7,0-1-1.7-1-2.6
			c-0.1-3.1,0-6.3,0-9.4c0-1.3,0.2-2.6-1.8-2.5c-0.5,0-0.9-0.3-0.9-0.8c0-0.6,0.3-1,0.8-0.9c2.1,0.1,2-1.3,1.9-2.6
			c0-0.7,0-1.4,0-2.1c0-0.8,0.3-1.4,1.2-1.3c0.8,0.1,1,0.6,1,1.3c0,0.5,0.1,1.1,0,1.6c-0.3,2.3,0.4,3.5,2.9,3.1
			C645.9,91.4,645.9,91.9,645.4,92.5z"/>
		<path class="st28" d="M645.4,92.5c0-0.6,0-1.2,0-1.8c0.6,0,0.9,0.4,0.9,1C646.2,92.3,645.8,92.5,645.4,92.5z"/>
		<path class="st22" d="M516.6,94c-5.9,0-10.4-4.2-10.4-9.7c0-5.4,4.6-9.3,10.3-9.7c5.4-0.3,10.3,5.3,10.4,9.7
			C526.9,89.5,521.2,94.9,516.6,94z"/>
		<path class="st29" d="M678.5,97.3c-1.6,0-3.3,0-4.9,0c-1.4,0-1.5-0.7-1-1.8c0.8-1.6,4.1-3.5,6.2-3.2c2.3,0.3,4.4,1.1,5.7,3.2
			c0.7,1.1,0.4,1.8-1,1.8C681.8,97.3,680.2,97.3,678.5,97.3z"/>
		<path class="st29" d="M657.4,97.3c-1.6,0-3.1,0-4.7,0c-1.5,0.1-1.8-0.5-1.2-1.8c0.9-1.9,3.5-3.5,6-3.2c2.4,0.2,4.5,1.1,5.6,3.6
			c0.4,1,0.2,1.5-0.9,1.5C660.7,97.3,659.1,97.3,657.4,97.3z"/>
	</g>
	<path class="st30" d="M81,181"/>
	<!--bee-->
	<g id="bee">
		<path class="st12" d="M219.1,169.6c0-0.9-0.4-1.7-1.2-2.4v4.8C218.7,171.4,219.1,170.5,219.1,169.6z"/>
		<path d="M214.4,165.7v7.8c1.4-0.2,2.7-0.7,3.5-1.5v-4.8C217.1,166.5,215.9,165.9,214.4,165.7z"/>
		<ellipse class="st15" cx="213.5" cy="161.6" rx="2.7" ry="4"/>
		<ellipse class="st15" cx="213.5" cy="177.6" rx="2.7" ry="4"/>
		<path class="st12" d="M207.5,169.6c0,0.9,0.4,1.7,1.1,2.3v-4.7C207.9,168,207.5,168.8,207.5,169.6z"/>
		<path class="st12" d="M213.3,165.7c-0.4,0-0.8,0-1.2,0.1v7.8c0.4,0.1,0.8,0.1,1.2,0.1c0.4,0,0.8,0,1.1-0.1v-7.8
			C214.1,165.7,213.7,165.7,213.3,165.7z"/>
		<path d="M208.6,167.3v4.7c0.8,0.8,2.1,1.4,3.5,1.6v-7.8C210.7,165.9,209.5,166.5,208.6,167.3z"/>
	</g>
	<path d="M205.5,163"/>
	<path d="M254,180"/>
	<!--bee path-->
	<!-- <path class="st31" id="beePath" d="M263.5,181.5c124.7,52.9,267.1,61.2,311,40c3.8-1.8,10.9-5.8,16.5-13.5c13.1-17.9,14.8-51.5-5.5-71
		c-12.6-12.1-35-9.9-82,7c-113.8,41-145.3,90.2-234,104.5c-44.4,7.2-65.1-0.6-76-12.5c-7.3-8-17-25.4-11.5-42.5
		c0.5-1.5,3.7-11.2,12.5-17.5C215.6,160.8,252.1,176.7,263.5,181.5z"/> -->
	<path class="st68" d="M313,205"/>
	<path id="beePath" class="st69" d="M218,167.3c2.4,0.6,42.5,11.4,58.4,13.1c2.2,0.2,6.5,0.6,10-2c2.9-2.1,5.5-6.2,4.7-10.7
		c-1-5.5-6.8-9.6-12.7-8.7c-5.3,0.9-9.6,6.3-9.3,10.7c0.5,9.3,21.7,15.2,34.7,18.7c98,26.4,147.6,39.7,174.7,40.3
		c24.8,0.6,57.7,6.9,87-6.3c16.2-7.3,22.8-16.1,26-21.7c8-14,6.3-27.9,5.7-31.7c-0.4-2.5-4.3-24.9-22-33.7c-10-5-21.8-2.2-45,3.7
		c-7.3,1.8-23.5,6.2-50.7,17.7C460,164.8,445.9,172,442,174c-89.8,45.5-108,53.6-130,61c-11.9,4-31.9,10.2-58,12
		c-20.7,1.4-35.2,2.2-50-6.3c-13.5-7.8-31.2-25.5-28.7-46.7c1.9-15.6,13.8-25.3,16-27c10.8-8.7,23.2-10.3,32.7-10.7
		c40.1-1.4,81.6,18.2,89.7,22c46.1,21.5,82,29.7,153.9,46c0,0,69.4,15.8,94.1-5.4c6.7-5.8,11.3-14.7,11.3-14.7
		c2.9-5.6,5.4-10.4,3.7-15c-2.4-6.6-10.4-11.5-16.3-9c-4,1.7-5.6,6-6,7.3c-4.2,10.6-2.1,20.7,3.7,24.3c6,3.8,14.3-0.3,16.3-1.3
		c13.8-6.9,17.5-23.9,18.7-29c3.6-16.3,1.9-42.6-14.7-53c-11-7-24.3-4.2-31-2.7c-58.6,13.3-108,40.3-108,40.3
		c-72.3,39.6-100.8,52.5-130,63c0,0-22.7,8.1-59.7,13.7c-46.3,6.9-58.8,0.5-65.3-5c-10.9-9-13.8-22.7-14.7-26.3
		c-1.5-6.3-4.9-21.3,3.3-33C181.5,166.7,199.6,162,218,167.3z"/>
</g>
<g id="Layer_1">
	<g>
		<path class="st22" d="M357.9,306.7c-2.7,2.2-5.8,3.3-9.2,3.4c-7.9,0.2-14-3.5-19.1-9.3c-3.3-3.8-4.6-8.4-6.1-13
			c-1.3-4-2-8.1-2.6-12.2c-0.4-2.5-0.7-5.1-0.8-7.7c-0.3-6.4,0-12.9,0.7-19.3c0.4-3.5,1.2-6.9,1.8-10.3c0.1-0.4,0.3-0.9,0-1.4
			c-1.6,1.2-2,0.4-1.8-1.2c0-0.2,0-0.4,0-0.5c-2.2-1.7-0.2-3.8-0.4-5.7c-0.1-0.7,0.5-1.4-0.8-1.3c-0.8,0.1-0.8-0.5-0.6-1
			c0.3-1.5,0.9-3,1.6-4.4c0.2-0.4,0.7-0.9,0.1-1.2c-1.7-0.8-0.5-1.1,0.1-1.6c1.2-1,2.4-2,3.6-3c0.3-0.2,0.5-0.5,0.7-0.8
			c3.4-6.1,8-11.4,11.6-17.3c4.5-7.3,8.5-14.8,11.8-22.7c2.8-6.7,5-13.7,6.2-20.9c0.6-3.8,1.1-7.7,0.8-11.7
			c-0.1-0.7,0.1-1.6-1.1-0.8c-0.7,0.5-1,0.1-1-0.6c0-0.9-0.1-1.6-1-2c-0.4-0.2-0.3-0.7-0.4-1.1c-0.2-1.4,0.4-2.8-0.7-4.3
			c-0.5-0.7,0.5-2.3,0.8-3.5c0.4-1.9,0-3.7-0.2-5.5c-0.4-3.6,0-7.1,0.7-10.6c0.2-1.2,0.3-1.9-1.4-2.2c-2.3-0.4-4.8-0.3-6.8-1.9
			c0.7-0.6,1.4-0.2,2.1-0.1c1.8,0.3,3.5,0.6,5.3,0.6c1.1,0,1.7-0.4,1.9-1.5c0.4-2.4,0.9-4.8,1.3-7.1c0.2-1.2-0.1-1.8-1.4-1.8
			c-3.5-0.1-7,0.3-10.4,1.5c-2.2,0.8-3.5,2.3-4.5,4.3c-2.1-3.1-0.7-8.3,3.1-10.1c3.1-1.4,6.4-1.8,9.6-1.2c2.4,0.4,4.4-0.2,6.6-0.8
			c4-1.2,7.7-3.2,11.5-5c6.1-2.9,12.4-4.6,19.1-5.2c4.8-0.4,9.4,0,14,0.9c4.9,1,9.5,3.1,13.7,5.8c3.1,2,6.4,3.2,9.9,4.4
			c1.3,0.4,2.8,0.1,4.3,0c4.4-0.4,8.7-0.2,12.7,2.1c3.1,1.8,4.8,5.9,2.5,9.9c-0.5-0.3-0.5-0.9-0.8-1.4c-0.9-1.6-2.4-2.5-4-3.1
			c-4-1.4-8-1.8-12.3-0.9c1,1,1.8,2.1,1.9,3.4c0.1,1.7,0.7,3.2,1.3,4.8c0.8,2,1.1,2.3,3.3,2.1c1.1-0.1,2.3-0.7,3.3,0.1
			c-1.1,0.5-2.3,1-3.5,1.1c-1,0.1-1.6,0.3-1.4,1.8c0.6,4,0.6,7.9-0.4,11.9c-0.5,2.1-0.7,4.6,0.4,6.8c0.2,0.3,0.5,0.8,0,1.1
			c-1.2,0.6-0.9,1.6-0.9,2.5c-0.1,0.9,0.4,1.9-1.1,2.3c-0.6,0.2-0.3,1.1-0.2,1.7c0.1,0.3,0.2,0.6-0.1,0.7c-0.3,0.1-0.5-0.1-0.7-0.3
			c-0.3-0.4-0.7-1.1-1.3-0.8c-0.7,0.3-0.3,1-0.4,1.6c-0.2,7.5,1.6,14.6,3.9,21.7c2.9,8.9,7.1,17.3,11.5,25.5c3,5.6,6.4,11,10,16.2
			c3.1,4.4,6,8.9,8.9,13.4c1.1,1.7,2.9,2.6,4.3,3.9c0.5,0.5,1.3,0.8,0.1,1.4c-0.6,0.3-0.1,0.8,0,1.2c0.5,1.6,1.3,3.2,0.7,5
			c0,0.1,0,0.3,0.1,0.5c0.5,1,1.1,1.9,0.4,3.3c-0.3,0.6,0.1,2-0.2,2.9c-0.1,0.3-0.3,0.6-0.4,0.9c-0.7,0-0.4-0.8-0.9-1
			c-0.4,0.1-0.3,0.4-0.3,0.7c0,3.5,0,6.9,0,10.4c-0.1,5.6-0.7,11.1-1.3,16.6c-0.4,4.2-0.9,8.3-1.6,12.4c-0.5,3.2-1.1,6.5-1.8,9.7
			c-0.8,3.5-2.6,6.6-3.9,9.9c-0.1,0.1-0.3,0.2-0.4,0.3c-0.4,0.1-0.5-0.1-0.6-0.4c0.2-1.4,1-2.7,1.5-4c0.3-0.9,0.7-1.7,0.9-2.6
			c1.9-7.5,3.8-15.1,4.5-22.8c0.8-8.4,1.6-16.9,1.4-25.3c0-0.3,0.1-0.7-0.1-1.1c-1.4,3.5-3.4,6.6-6.2,9c-2.3,1.9-4.8,3.3-7.6,4.4
			c-1,0.4-1.9,0.8-2.8,1.3c-2.3,1.4-4.8,2.4-7.5,2.9c2.8,0.4,5.4,1.1,7.9,2.4c2.2,1.1,4.1,2.7,5.8,4.6c0.3,0.4,0.7,0.8,0.9,1.3
			c0.1,0.3,0.3,0.6,0,0.8c-0.3,0.3-0.6,0.3-1,0.1c-0.4-0.2-0.7-0.5-1-0.9c-5-6.4-16.2-8.4-22.6-5.3c-1.5,0.7-1.8,0.6-2.1-0.6
			c2.2-1.8,4.9-2.1,7.6-2.4c2.2-0.2,2.3-0.3,2.4-2.6c0-0.6,0-1.3,0.2-1.9c0.2-1.9,0.4-3.7,0.5-5.6c0.2-3.9,0.7-7.9,1-11.8
			c0.4-4.2,0.8-8.3,1.1-12.5c0.4-1.3,0.1-2.6,0.4-3.9c0.3-1.2,0.1-2.5,0.3-3.7c0.4-1.2,0.3-2.4,0.2-3.5c-0.1-0.1-0.1-0.3-0.2-0.4
			c-0.2-0.5-0.6-0.9-1.1-1.2c-0.1-0.1-0.3-0.2-0.4-0.3c-0.2-0.1-0.3-0.1-0.5-0.2c-5.7-0.1-11.4,0-17.2,0c-0.8,0-1.6,0.1-2.4-0.2
			c-0.4-0.2-0.6-0.6-0.5-1c0.4-3-1.6-4.5-3.6-6c-3.6-2.7-7.8-3.5-12.1-4.1c-5.2-0.8-10.4-1.3-15.7-1.1c-6.7,0.3-13.3,1.1-19.6,3.8
			c-1.3,0.6-2.5,1.2-3.6,2c-1.8,1.3-3.2,2.8-2.9,5.3c0.1,0.4,0,0.8-0.4,1.1c-1.2,0.5-2.4,0.2-3.6,0.2c-3.5,0.1-7-0.2-10.5,0.2
			c-0.2,0.1-0.3,0.3-0.5,0.4c-1.1,0.8-1.3,1.9-1.2,3.2c0.7,6.6,1.5,13.3,2.2,19.9c0.7,7.4,1.8,14.7,2.3,22.1c0,0.4,0.1,0.8,0,1.2
			c-1.6,1.1-3.3,1.3-5,0.6c-2.3-0.8-4.4-1.5-6.8-0.1c-0.6,0.4-1.4,0.4-2.2,0.3c-0.3-0.1-0.5-0.3-0.6-0.5c-0.2-0.7-0.7-1.2-1.2-1.7
			c-5.5-5.1-10.2-11.6-12.5-18.3c-1.1,5.5-1.8,11.2-2.1,16.9c-0.2,3.8-0.1,7.7,0.1,11.6c0.3,5.3,1.1,10.5,2.2,15.7
			c1,4.7,2.2,9.4,4.8,13.4c4.5,6.8,10.7,11.2,19.2,11.5c2.7,0.1,5.2-0.7,7.6-1.9c0.6-0.3,1.1-0.7,1.8-0.7
			C357.5,306.4,357.7,306.5,357.9,306.7z"/>
		<path class="st32" d="M338.9,107.3c-0.1-2,1.2-3.1,2.7-3.9c4.1-2.2,8.5-2.5,13.1-2.3c1,0,1.4,0.5,1.1,1.6
			c-0.6,2.9-1.1,5.7-1.6,8.6c-0.2,1-0.7,1.1-1.6,1.2c-2.8,0.1-5.5-0.5-8.2-1C342.1,110.7,339.9,109.8,338.9,107.3z"/>
		<path class="st32" d="M438.6,113.2c-1.7,0.1-3.3,0.2-5,0.4c-0.8,0.1-1.3-0.2-1.6-1c-0.6-2-1.8-3.8-1.8-6.1c0-1.6-1-2.8-2.3-4.1
			c4.1-1,7.9-0.8,11.7,0.2c1.9,0.5,3.6,1.2,5,2.6c0.4,0.4,0.9,0.8,0.9,1.4c0,1.5-1.1,2.5-1.4,3.9C442.6,112,440.5,112.4,438.6,113.2
			z"/>
		<path class="st33" d="M457.6,298.4c0.1,0.1,0.2,0.2,0.4,0.4c-2.9,6.5-7.9,10.8-14.9,11.9c-4.5,0.7-9.2,0.5-13.5-1.7
			c-5.4-2.9-11.2-4.6-17.2-5.6c-4.1-0.7-8.3-1.2-12.4-1.6c-4.9-0.5-9.9-0.5-14.8-0.6c-0.2-0.3-0.2-0.6,0.1-0.8
			c1.7-0.6,3.5-0.3,5.3-0.2c1.4,0.4,2.7,0.2,4.1,0.2c8.6,0.1,17.1,1.5,25.4,3.6c0.3-0.6-0.2-0.9-0.4-1.3c-2.7-5.1-3.6-10.5-3.2-16.2
			c0.3-4.5,1.2-8.9,2.9-13.1c0.4-0.9,0.8-1.8,1.4-2.6c0.4-0.5,0.8-1.2,1.5-0.9c0.8,0.4,0.2,1.1,0,1.6c-0.7,1.3-1.2,2.6-1.7,4
			c-2.6,7-3.1,14.1-1.3,21.4c1.1,4.4,3.6,7.7,7.8,9.8c5.5,2.6,11,4,17.1,2.7c5.5-1.2,9.1-4.9,12.1-9.4
			C456.6,299.3,456.7,298.5,457.6,298.4z"/>
		<path class="st33" d="M385.3,300.5c0,0.2,0,0.4,0,0.7c-5.3,0.1-10.5,0.5-15.7,1.4c-1,0.2-2,0-3.1,0.2c-2.6,0.5-5.3,0.7-7,3.2
			c-0.3,0.4-0.8,0.8-1.5,0.8c-0.2,0-0.5,0-0.7,0c-0.1-0.8,0.6-1.1,1.1-1.4c6.8-5,8.8-12,7.9-20c-0.6-5.3-2-10.4-4.5-15.2
			c-0.2-0.3-0.5-0.7-0.2-1.1c0.4-0.4,0.9-0.1,1.3,0.1c0.5,0.3,0.8,0.8,1,1.4c2.9,6.2,4.6,12.7,4.3,19.6c-0.2,3.6-1.1,7-2.9,10.2
			c-0.3,0.5-0.7,0.9-0.7,1.6c2.7-0.3,5.4-0.6,8.1-1.1c3.4-0.5,6.9-0.4,10.3-0.8C383.6,299.9,384.5,299.8,385.3,300.5z"/>
		<path class="st34" d="M444.1,110.4c-0.5-1.6,0.6-2.7,1.4-3.9c0.5,0.4,0.3,0.9,0.4,1.4C445.6,109,445.1,109.9,444.1,110.4z"/>
		<path class="st35" d="M385.3,300.5c-7.4,0.1-14.7,0.8-22.2,2.2c6.8-9.7,5.1-19.6,1.4-29.6c-0.5-1.4-0.6-3.5-2.8-4.1
			c2.8,5,4.2,10.3,5,15.8c0.7,5.1,0,10-2.3,14.5c-1.5,2.9-4,5.1-6.7,7c-0.1,0.1-0.2,0.2-0.4,0.3c-2.8,1.4-5.6,2.6-8.8,2.8
			c-4.2,0.2-8.1-1.1-11.6-3.3c-3.8-2.4-7.1-5.2-9.2-9.3c-2-4-3.3-8.2-4.3-12.5c-2-8.5-2.8-17.2-2.4-26c0.2-4.8,0.6-9.6,1.5-14.3
			c0.3-1.7,0.5-3.5,1-5.3c0.9,0.9,1,2.2,1.5,3.3c2.2,4.5,4.7,8.8,8.3,12.4c1.2,1.3,2.3,2.7,3.8,3.8c0.4,0.3,1,0.7,0.6,1.4
			c-1.9,1.5-4.1,2.5-5.8,4.3c-2.8,2.9-4.9,6.3-6.4,9.9c2.1-4.8,4.8-9.1,9.2-12.2c1-0.7,2.1-1.4,3.4-1.7c1.2-0.3,2.4-0.4,3.5-1.1
			c1.3-0.8,2.9-0.3,4.2,0.2c1.8,0.7,3.5,1.4,5.4,0.3c0.1-0.1,0.4,0.2,0.6,0.2c1.7,2.1,3.9,2.3,6.5,2.3c22.8-0.1,45.6-0.1,68.4,0
			c1.1,0,2.2-0.3,3.1,0.6c0.3,1.2,1.1,0.3,1.5,0.2c5.7-2.6,11.3-1.9,16.9,0.3c2.7,1.1,4.9,2.9,6.8,5.2c0.3,0.4,0.5,1,1.2,0.8
			c-0.8-2-3.6-4.6-6.7-6.2c-2.8-1.5-5.9-1.7-8.9-2.9c4-0.5,7.1-2.8,10.7-4.2c2-0.8,3.9-1.8,5.7-2.9c4-2.3,6.7-5.8,8.4-10.1
			c0.2-0.5,0.1-1.2,0.8-1.5c0.1,0.1,0.3,0.3,0.3,0.4c0,4,0.2,8-0.1,11.9c-0.2,2.3-0.3,4.7-0.5,7c-0.4,4.9-1,9.7-1.7,14.5
			c-0.3,2.3-0.5,4.7-1.2,6.9c-1.7,5.5-2.2,11.4-5.2,16.5c-2,3.6-4.5,6.8-7.9,9.1c-2.2,1.5-4.6,2.4-7.2,2.7
			c-7.2,0.8-13.6-1.1-19.4-5.4c-2.4-1.8-3.5-4.4-4.3-7.1c-2.3-8.7-1.3-17.1,2.4-25.2c0.2-0.4,0.4-0.8,0.7-1.2
			c0.2-0.3,0.5-0.6,0.4-1.1c-1.7,0.8-3,3.8-4.6,10.8c-0.9,4-1.1,8.1-0.5,12.1c0.6,4.1,1.7,7.9,4.2,11.4c-8.8-1.9-17.5-3.7-26.4-3.7
			c-1.4-0.5-2.8,0.1-4.2-0.3C389,300.5,387.1,300.5,385.3,300.5z"/>
		<path class="st17" d="M429.6,262.4c-12,0-24,0-36,0c-12.2,0-24.4,0-36.6,0c-1.2,0-2.4,0.6-3.6-0.4c-0.9-0.7-1.5-1.3-1.8-2.4
			c-0.4-4-0.9-8-1.3-11.9c-0.6-5-1.1-10-1.7-15c-0.5-4.7-1-9.5-1.4-14.2c-0.1-1.2-0.5-2.4-0.4-3.6c0.1-1.1,0.5-2,1.7-2.3
			c0.6-0.4,1.3-0.3,2-0.3c22.9-0.2,45.9-0.2,68.8-0.1c7,0,13.9,0,20.9,0.1c0.6,0,1.3-0.1,1.8,0.3l0,0c0.5,0.4,1,0.9,1.4,1.4l0,0
			c0.2,1.3,0.2,2.6,0,3.9c-0.2,1.3,0.3,2.6-0.3,3.8c-0.6,1.2,0.1,2.6-0.4,3.8c-0.2,5.1-0.8,10.2-1.3,15.3c-0.3,3.1-0.5,6.1-0.8,9.2
			c-0.7,1.8-1,3.7-0.6,5.6c-0.1,1.4,0.3,2.8-0.3,4.1c-0.8,1.6-2.5,0.5-3.7,0.8C433.8,260.9,431.6,261.5,429.6,262.4z"/>
		<path class="st35" d="M363.5,211.8c-0.9-2.7-0.1-4.6,2.7-6.5c4-2.8,8.6-4,13.3-4.8c5-0.9,10.1-1.2,15.3-1.1c4.7,0.2,9.3,1,14,1.7
			c4.3,0.6,7.9,2.6,11.1,5.4c1.7,1.5,2.2,3.3,1.5,5.4c-0.1,0.1-0.2,0.1-0.3,0.2c-0.6,0.2-1.3,0.1-1.9,0.1c-17.8,0-35.7,0-53.5,0
			c-0.6,0-1.3,0.1-1.9-0.1C363.6,212,363.5,211.9,363.5,211.8z"/>
		<path class="st35" d="M383.6,141.3c-3-1.8-4.2-4.5-3.8-7.8c0.2-1.3-0.3-1.8-1.3-2.2c-1.3-0.6-2.4-1.4-3.3-2.4
			c-1.3-1.5-1.3-3.1,0-4.7c1.7-2.2,4.2-2.9,6.7-3.7c3.6-1.2,7.3-2.4,11.3-2.1c5.2,0.5,10.2,1.8,14.6,4.6c2.7,1.7,3,4.4,0.6,6.4
			c-1.9,1.6-3.2,2.8-2.8,5.9c0.5,3.5-4,6.3-7.9,5.6c-1.3-0.3-2.6-0.7-3.9-1.3c-0.4-0.2-0.5-0.1-0.6,0.3c-0.8,0.6-1.4-0.3-2.1-0.2
			c-1.2-0.3-1.8,0.7-2.5,1.3C387,141.8,385.3,142,383.6,141.3z"/>
		<path class="st36" d="M391.2,139.2c0.8-0.3,1.3,0.7,2,0.6c0.3,0.1,0.5,0.3,0.8,0.4c0.7,0.8,0.4,1.8,0.3,2.7
			c-0.5,1.9-2,2.6-3.7,2.8c-2.2,0.3-4.4-0.2-6.4-1.1c-0.2-0.3-0.3-0.6-0.5-0.9c-0.6-1.3-0.1-2,1.4-2.1c1.4-0.1,2.9,0.3,4-1.1
			C389.5,139.6,390.5,139.6,391.2,139.2z"/>
		<path class="st37" d="M442.1,212.5c-31.2,0-62.4,0-93.6,0c0-0.1,0-0.2,0.1-0.3c2-0.4,4.1-0.1,6.1-0.2c2.9,0,5.8,0,8.8,0
			c19.2,0,38.5,0,57.7,0c6.3,0,12.6,0,19,0c0.6,0,1.3-0.2,1.9,0.2C442.1,212.3,442.1,212.4,442.1,212.5z"/>
		<path class="st38" d="M412.7,123.6c-2.1,0-2.8-0.7-2.8-2.7c0-2.2,0.7-2.9,2.8-2.9c2,0,2.7,0.7,2.8,2.8
			C415.4,122.8,414.7,123.6,412.7,123.6z"/>
		<path class="st39" d="M370.3,123.2c-2,0-2.7-0.7-2.7-2.8c0-2,0.7-2.8,2.7-2.8c2.1,0,2.8,0.7,2.8,2.9
			C373.1,122.5,372.4,123.2,370.3,123.2z"/>
		<path class="st33" d="M337.8,260c-4,2.2-7.3,5.1-9.6,9.1c-0.8,1.4-1.5,2.8-2.3,4.2c-0.3,0.6-0.4,1.5-1.7,2
			c0.7-1.5,1.2-2.7,1.8-3.9c2.5-4.8,5.6-9,10.5-11.5c0.3-0.2,0.6-0.2,1-0.3C337.6,259.7,337.7,259.9,337.8,260z"/>
		<path class="st40" d="M442,212.2c-6.9,0-13.8,0-20.8,0c-0.1-0.1-0.2-0.1-0.1-0.2c0-0.1,0.1-0.1,0.1-0.1h0c6.3,0,12.7,0,19,0
			C440.9,211.9,441.5,211.6,442,212.2z"/>
		<path class="st41" d="M389.4,140.5c0.1,1.2-0.9,1.2-1.6,1.4c-0.4,0.1-0.8,0-1.2,0c-2.9,0-2.9,0-2.4,2.7c-1.5-0.9-1.1-2.1-0.7-3.3
			c1.8,0.1,3.5,0.1,5.2-0.8C389,140.3,389.2,140.3,389.4,140.5z"/>
		<path class="st40" d="M363.4,212.2c-5,0-9.9,0-14.9,0c0.5-0.6,1.2-0.3,1.8-0.3c4.4,0,8.7,0,13.1,0h0c0.1,0.1,0.1,0.1,0.1,0.2
			C363.5,212.1,363.5,212.2,363.4,212.2z"/>
		<path class="st42" d="M440,255.5c-1.1-2-0.8-4.1,0.6-5.6C440.4,251.8,440.5,253.7,440,255.5z"/>
		<path class="st43" d="M414,114.5c1.9,0.3,3.3,0.6,3.9,2.7C416.3,116.7,415.3,115.7,414,114.5z"/>
		<path class="st44" d="M364.3,116.7c0.9-1.6,2-2.2,3.7-2.6C366.9,115.3,365.8,115.9,364.3,116.7z"/>
		<path class="st45" d="M442.8,225.4c0.1-1.3-0.4-2.6,0.4-3.8C442.9,222.8,443.4,224.2,442.8,225.4z"/>
		<path class="st46" d="M443.4,217.8c0-1.3,0-2.6,0-3.9C444,215.2,443.9,216.5,443.4,217.8z"/>
		<path class="st47" d="M443.4,213.9c-0.8-0.2-1.2-0.6-1.4-1.4C442.9,212.6,443.3,213.1,443.4,213.9z"/>
		<path class="st35" d="M394.3,142.9c-0.1-0.9,0.2-1.9-0.3-2.7C395.1,141,394.6,142,394.3,142.9z"/>
		<path class="st33" d="M390.8,300.5c1.4,0.2,2.8-0.4,4.2,0.3C393.6,300.6,392.1,301.2,390.8,300.5z"/>
		<path class="st48" d="M425.4,265.5c-0.5,0.6-1.2,0.3-1.8,0.3c-21.1,0-42.2,0-63.3,0c-1.1,0-2-0.2-2.8-1.1c0.2-1,1-0.6,1.5-0.7
			c1.8-0.1,3.6,0,5.4,0c19.5,0,38.9,0,58.4,0c0.6,0,1.3,0,1.9,0C425.6,264.3,425.8,264.8,425.4,265.5z"/>
		<path class="st49" d="M335.1,287.2c0.1-5.2,3.2-10.8,8.5-11.5c3.2-0.4,5.7,0.9,7.6,3.3c4,5.3,3.9,12.3-0.5,17.3
			c-3.5,4-9.5,3.8-13.1-1C336,293.2,335.1,290.1,335.1,287.2z"/>
		<path class="st50" d="M448.2,290.5c0.2,3.9-0.9,6.9-3.4,9.5c-3.4,3.5-8.4,3.4-11.9-0.2c-4.2-4.3-4.3-12.9-0.4-17.3
			c4.3-4.9,11-4.1,14.2,1.7C447.8,286.2,448.7,288.3,448.2,290.5z"/>
		<path class="st51" d="M425.4,265.5c0-0.6-0.1-1.1-0.8-1c-0.3,0-0.7,0-1,0c-21.3,0-42.7,0-64,0c-0.7,0-1.4-0.2-2,0.3
			c-0.3-0.1-0.5-0.3-0.7-0.6c0.5-0.3,1-0.2,1.5-0.2c22.1,0,44.2,0,66.3,0c0.5,0,0.9-0.1,1.4,0.1C427.1,265.1,425.6,265,425.4,265.5z
			"/>
		<path class="st52" d="M426.1,264.1c-22.4,0-44.9,0-67.3,0c-0.6,0-1.3,0-1.9,0c0.5-0.6,1.2-0.4,1.8-0.4c21.9,0,43.9,0,65.8,0
			C425,263.8,425.6,263.6,426.1,264.1z"/>
		<path class="st50" d="M333,271.4c1,0,3.4,3.2,3.3,4.5c0,0.5-3.3,3.8-3.8,3.7c-1.2,0-4.4-2.3-4.4-3.1
			C328.1,272.6,329.3,271.3,333,271.4z"/>
		<path class="st53" d="M354.7,269c0.7,0.2,1.9-0.5,2.4,0.4c0.7,1.2,1,2.5,1.4,3.9c0.2,0.7-3,3.3-3.9,3.3c-0.9,0-4-2.4-4-3.2
			C350.7,270.5,352,269,354.7,269z"/>
		<path class="st50" d="M341.1,273c-0.7,0-2.7-3.4-2.7-4.5c0-0.4,3.3-3.3,3.7-3.4c0.7,0,4.3,2.4,4.2,2.9c-0.3,1.4-0.4,3.1-1.2,4.2
			C344.2,273.5,342.3,272.3,341.1,273z"/>
		<path class="st54" d="M427.7,274.9c0.9,0,3.2,3.4,3.2,4.5c0,0.5-3.2,3.6-3.7,3.6c-1.3-0.1-4.5-2.4-4.5-3.2
			C422.8,276.1,424.1,274.8,427.7,274.9z"/>
		<path class="st55" d="M436.5,276.2c-0.6-0.3-1.4,0.6-1.8-0.2c-0.7-1.3-1.1-2.6-1.5-4c-0.2-0.5,3-3.3,3.7-3.4
			c0.8-0.1,3.9,2.5,3.9,3.2C440.7,275.1,439.7,276.2,436.5,276.2z"/>
		<path class="st56" d="M449.2,272.4c0.8,0.2,1.9-0.4,2.4,0.4c0.7,1.2,1,2.7,1.4,4c0.1,0.5-3.2,3.1-3.8,3.2c-0.6,0-4-2.6-3.9-3
			c0.4-1.4,0.6-2.9,1.3-4.2C447,272,448.3,272.6,449.2,272.4z"/>
		<path class="st57" d="M363.4,212.2c0-0.1,0-0.2,0-0.3c19.3,0,38.5,0,57.8,0c0,0.1,0,0.2,0,0.3C402,212.2,382.7,212.2,363.4,212.2z
			"/>
		<path class="st58" d="M394.8,121.3c-0.5,0.7-1.4,0.5-2,0.9c-1.6,0.9-1.6,2-0.1,3c2.2,1.3,4.5,1,6.6-0.1c1.4-0.8,1.4-0.1,1.5,0.9
			c0.2,1.9-0.8,3.1-2.2,4c-3.1,2-8,2.3-11.4,0.1c-3.1-2.1-3.1-5.4,0-7.4C389.2,121.3,392.1,120.8,394.8,121.3z"/>
		<path class="st59" d="M395.8,122.2c1.4,0,2.5,0.3,3.4,1c0.8,0.5,0.8,1.1-0.1,1.5c-1.9,0.8-3.9,1-5.8,0.1c-0.4-0.2-0.9-0.4-0.9-0.9
			c0-0.7,0.6-0.9,1-1.1C394.1,122.4,395.1,122.1,395.8,122.2z"/>
		<path class="st60" d="M389.4,140.5c-0.2,0-0.5,0-0.7,0c0.4-1.2,1.3-1.5,2.5-1.3C390.8,139.9,389.9,139.9,389.4,140.5z"/>
		<path class="st61" d="M413.6,121.1c-0.1,0.6-0.4,1-1,1c-0.6,0-1-0.4-1-0.9c0-0.7,0.4-1.1,1.1-1.1
			C413.2,120.1,413.5,120.6,413.6,121.1z"/>
		<path class="st62" d="M371.4,120.8c-0.1,0.5-0.4,1-1,0.9c-0.7,0-1.1-0.5-1-1.1c0.1-0.6,0.5-0.9,1.1-0.9
			C371.1,119.8,371.4,120.2,371.4,120.8z"/>
		<!-- <path class="st61" d="M412.6,121.5c-0.1,0.6-0.4,1-1,1c-0.6,0-1-0.4-1-0.9c0-0.7,0.4-1.1,1.1-1.1
			C412.2,120.5,412.5,121,412.6,121.5z"/>
		<path class="st62" d="M372.4,121.2c-0.1,0.5-0.4,1-1,0.9c-0.7,0-1.1-0.5-1-1.1c0.1-0.6,0.5-0.9,1.1-0.9
			C372.1,120.2,372.4,120.6,372.4,121.2z"/> -->
		<path class="st63" d="M353.1,288.4c-0.2,3-1.3,6.5-4.8,8.8c-2.5,1.6-5.5,1.4-7.9-0.3c-5.5-3.9-5.8-14.1-0.7-18.4
			c3.7-3.1,8.4-2.3,11.3,1.8C352.3,282.2,353.1,284.9,353.1,288.4z"/>
		<path class="st63" d="M447.6,290.9c0,3.3-1,6.2-3.3,8.6c-3.1,3.1-7.4,3.1-10.5,0c-4.4-4.3-4.5-12.9-0.1-17.3
			c3.3-3.3,8.1-3.1,11.1,0.5C446.7,284.9,447.6,287.7,447.6,290.9z"/>
		<path class="st63" d="M332.6,272.4c0.9-0.1,2.7,2,2.8,3.2c0,0.4-2.5,3-2.9,3c-0.7,0-3.2-1.8-3.3-2.4
			C328.9,273.5,329.6,272.7,332.6,272.4z"/>
		<path class="st64" d="M351.7,272.8c0.3-2.4,1.4-3.3,4-3.1c0.6,0.1,1.9,2.4,1.8,3.3c0,0.6-2.5,2.5-3.1,2.4
			C353.5,275.4,351.6,273.5,351.7,272.8z"/>
		<path class="st65" d="M341.7,272.1c-0.8,0-2-1.8-2.1-3.1c0-0.6,2.2-2.8,2.8-2.7c0.6,0,2.9,1.9,2.9,2.3
			C345.2,271,344.1,272,341.7,272.1z"/>
		<path class="st66" d="M423.6,279.3c0.3-2.9,1.6-4,4.1-3.7c0.4,0.1,2.2,3,2.2,3.5c0,0.5-2.5,2.9-3,2.9
			C425.7,282,423.5,280.2,423.6,279.3z"/>
		<path class="st67" d="M436.7,275.5c-1.3,0.1-2.7-1.5-2.8-3.2c0-0.5,2.3-2.7,2.9-2.7c0.6,0,3.1,1.9,3.1,2.4
			C439.9,274.6,439.1,275.4,436.7,275.5z"/>
		<path class="st67" d="M452.1,276.5c0,0.4-2.5,2.6-3,2.6c-0.6,0-3.1-2.2-3-2.7c0.2-2.6,1-3.4,3.7-3.3
			C450.9,273.2,452.1,275,452.1,276.5z"/>
	</g>
</g>
</svg>