<?xml version="1.0" encoding="UTF-8" standalone="no"?>
<svg id="Layer_1" xmlns:rdf="http://www.w3.org/1999/02/22-rdf-syntax-ns#" xmlns="http://www.w3.org/2000/svg" xml:space="preserve" viewBox="0 0 683.02393 379.00815" height="379.01" width="683.02" version="1.1" y="0px" x="0px" xmlns:cc="http://creativecommons.org/ns#" xmlns:xlink="http://www.w3.org/1999/xlink" xmlns:dc="http://purl.org/dc/elements/1.1/"><metadata id="metadata3793"><rdf:RDF><cc:Work rdf:about=""><dc:format>image/svg+xml</dc:format><dc:type rdf:resource="http://purl.org/dc/dcmitype/StillImage"/><dc:title/></cc:Work></rdf:RDF></metadata><style id="style3337" type="text/css">
	.st0{fill:none;stroke:#F498C0;stroke-width:6;stroke-miterlimit:10;}
	.st1{fill:#F498C0;}
	.st2{fill:none;}
	.st3{fill:#FFFFFF;}
	.st4{font-family:&apos;LemonMilk&apos;;}
	.st5{font-size:24px;}
	.st6{fill:#A97C50;}
	.st7{fill:#8DC63F;}
	.st8{fill:#D1D3D4;}
	.st9{fill:#365460;}
	.st10{fill:#FFDE17;}
	.st11{fill:#68BD45;}
	.st12{fill:#332A4D;}
	.st13{fill:#C2E8F8;}
	.st14{fill:none;stroke:#8492C7;stroke-width:0.5;stroke-miterlimit:10;}
	.st15{fill:#8492C7;}
	.st16{fill:none;stroke:#F1F2F2;stroke-width:2;stroke-miterlimit:10;}
	.st17{fill:#F1F2F2;stroke:#F1F2F2;stroke-width:0.5;stroke-miterlimit:10;}
	.st18{fill:none;stroke:#F1F2F2;stroke-width:3;stroke-miterlimit:10;}
	.st19{fill:#8CD6F5;}
	.st20{fill:#FEFEFE;}
	.st21{fill:#FDFEFE;}
	.st22{fill:#F9FCFE;}
	.st23{fill:#DBF1FB;}
	.st24{fill:#8ED6F5;}
	.st25{fill:none;stroke:#C2E8F8;stroke-miterlimit:10;}
	.st26{fill:#FFDE17;stroke:#9B58A3;stroke-miterlimit:10;stroke-opacity:0;}
	.st27{fill:none;stroke:#9B58A3;stroke-miterlimit:10;stroke-opacity:0;}
	.st28{fill:#6FB2CB;}
	.st29{fill:#BDE6F7;}
	.st30{fill:#76B8C8;}
	.st31{fill:#A3D6EA;}
	.st32{fill:#D37A9F;}
	.st33{fill:#799AC2;}
	.st34{fill:#444648;}
	.st35{fill:#393C3C;}
	.st36{fill:#CAE3F6;}
	.st37{fill:#D17CA7;}
	.st38{fill:#8296C6;}
	.st39{fill:#7AB4C8;}
	.st40{fill:#82B7CB;}
	.st41{fill:#7B9CBE;}
	.st42{fill:#7B9DBE;}
	.st43{fill:#7C99C0;}
	.st44{fill:#8593C8;}
	.st45{fill:#C1E6F5;}
	.st46{fill:#C0E5F4;}
	.st47{fill:#7799BC;}
	.st48{fill:#B0CFEC;}
	.st49{fill:#BFE4F3;}
	.st50{fill:#BEE3F3;}
	.st51{fill:#BEE4F3;}
	.st52{fill:#BEE3F2;}
	.st53{fill:#B3D0ED;}
	.st54{fill:#4A7584;}
	.st55{fill:#DCEEF5;}
	.st56{fill:#C7CBE2;}
	.st57{fill:#C8D3D6;}
	.st58{fill:#CDD6DB;}
	.st59{fill:#365561;}
	.st60{fill:#365560;}
	.st61{fill:#375461;}
	.st62{fill:#375561;}
</style><g id="Layer_3" transform="translate(-50.4 -48.792)"><line id="line3340" style="stroke:#f498c0;stroke-width:6;stroke-miterlimit:10;fill:none" y2="378.2" x2="344.1" y1="347.2" x1="344.1" class="st0"/><line id="line3342" style="stroke:#f498c0;stroke-width:6;stroke-miterlimit:10;fill:none" y2="378.2" x2="440" y1="347.2" x1="440" class="st0"/><a id="a3344" xlink:href="https://goo.gl/forms/0QKWXewShleg9mNS2"><g id="g3346" class="bounceGroup"><rect id="rect3348" style="fill:#f498c0" class="st1" height="43.5" width="162.1" y="367.8" x="311.9"/><rect id="rect3350" style="fill:none" class="st2" height="48" width="82.5" y="379.8" x="353.6"/><text id="text3352" style="font-size:24px;font-family:LemonMilk;fill:#ffffff" transform="translate(353.61 398.6)" class="st3 st4 st5">APPLY</text>
</g></a><line id="line3354" style="stroke:#f498c0;stroke-width:6;stroke-miterlimit:10;fill:none" y2="376.7" x2="568.5" y1="345.8" x1="568.5" class="st0"/><line id="line3356" style="stroke:#f498c0;stroke-width:6;stroke-miterlimit:10;fill:none" y2="376.7" x2="664.3" y1="345.8" x1="664.3" class="st0"/><a id="a3358" xlink:href="#info" target="_top"><g id="g3360" class="bounceGroup"><rect id="rect3362" style="fill:#f498c0" class="st1" height="43.5" width="162.1" y="367.8" x="536.2"/><rect id="rect3364" style="fill:none" class="st2" height="48" width="57.8" y="379.7" x="591"/><text id="text3366" style="font-size:24px;font-family:LemonMilk;fill:#ffffff" transform="translate(590.97 398.54)" class="st3 st4 st5">Info</text>
</g></a><line id="line3368" style="stroke:#f498c0;stroke-width:6;stroke-miterlimit:10;fill:none" y2="378.2" x2="117.7" y1="347.2" x1="117.7" class="st0"/><line id="line3370" style="stroke:#f498c0;stroke-width:6;stroke-miterlimit:10;fill:none" y2="378.2" x2="213.6" y1="347.2" x1="213.6" class="st0"/><a id="a3372" xlink:href="https://goo.gl/forms/mPCPovVBXOOT9OZY2"><g id="g3374" class="bounceGroup"><rect id="rect3376" style="fill:#f498c0" class="st1" height="43.5" width="162.1" y="367.8" x="85.4"/><rect id="rect3378" style="fill:none" class="st2" height="48" width="82.5" y="379.8" x="127.2"/><text id="text3380" style="font-size:24px;font-family:LemonMilk;fill:#ffffff" transform="translate(117.7 398.6)" class="st3 st4 st5">Mentor</text>
</g></a><rect id="rect3382" style="fill:#a97c50" class="st6" height="27" width="654" y="324.6" x="65.4"/><rect id="rect3384" style="fill:#8dc63f" class="st7" height="62.2" width="654" y="262.5" x="65.4"/><ellipse id="ellipse3386" style="fill:#d1d3d4" rx="32" ry="9.4" class="st8" cy="274.6" cx="216"/><ellipse id="ellipse3388" style="fill:#d1d3d4" rx="32" ry="9.4" class="st8" cy="295.9" cx="152"/><g id="g3390"><g id="g3392"><path id="path3394" style="fill:#a97c50" class="st6" d="m515 183.9c-25.1 0-45.5 6.5-45.5 14.4 0 8 20.4 14.4 45.5 14.4s45.5-6.5 45.5-14.4-20.3-14.4-45.5-14.4zm0.2 23.3c-22 0-39.8-4.7-39.8-10.6 0-5.8 17.8-10.6 39.8-10.6s39.8 4.7 39.8 10.6-17.8 10.6-39.8 10.6z"/><path id="path3396" style="fill:#a97c50" class="st6" d="m515.4 276.7c-14.6 0-26.5 3.8-26.5 8.4s11.9 8.4 26.5 8.4 26.5-3.8 26.5-8.4-11.9-8.4-26.5-8.4zm0.1 13.6c-12.8 0-23.2-2.8-23.2-6.2s10.4-6.2 23.2-6.2 23.2 2.8 23.2 6.2c-0.1 3.4-10.4 6.2-23.2 6.2z"/><path id="path3398" style="fill:#a97c50" class="st6" d="m469.5 198.4 9.9 19.1s-12.4 14.9-7.9 35.2c4.6 20.3 17.3 32.5 17.3 32.5s15.8 11.1 39 5.2-9.5-80.5-9.5-80.5-40 0.3-48.8-11.5z"/><path id="path3400" style="fill:#a97c50" class="st6" d="m560.5 199.9-9.9 19.1s12.4 14.9 7.9 35.2c-4.6 20.3-17.3 32.5-17.3 32.5s-15.8 11.1-39 5.2 9.5-80.5 9.5-80.5 40.1 0.3 48.8-11.5z"/></g><path id="path3402" style="fill:#365460" class="st9" d="m552.4 263.2c0.1 0.3 0.2 0.7 0.2 1 0 5-16.7 9-37.3 9s-37.3-4-37.3-9c0-0.3 0.1-0.7 0.2-1h-4.9c-0.6 0.8-0.8 1.6-0.8 2.5 0 6.8 19.1 12.3 42.7 12.3s42.7-5.5 42.7-12.3c0-0.8-0.3-1.7-0.8-2.5h-4.7z"/><path id="path3404" style="fill:#365460" class="st9" d="m549.1 217.4c0.1 0.3 0.2 0.6 0.2 0.9 0 4.5-15.2 8.2-33.9 8.2s-33.9-3.7-33.9-8.2c0-0.3 0.1-0.6 0.2-0.9h-4.5c-0.5 0.7-0.8 1.5-0.8 2.2 0 6.2 17.4 11.2 38.8 11.2s38.8-5 38.8-11.2c0-0.8-0.3-1.5-0.8-2.2h-4.1z"/><ellipse id="ellipse3406" style="fill:#ffde17" rx="31.8" ry="15.3" class="st10" cy="191.3" cx="504.4"/><ellipse id="ellipse3408" style="fill:#ffde17" rx="26.4" ry="10.3" class="st10" cy="196.3" cx="528.7"/><ellipse id="ellipse3410" style="fill:#ffde17" rx="2.8" ry="6" class="st10" cy="221.8" cx="539.1"/></g><path id="path3412" style="fill:#68bd45" class="st11" d="m677.2 319.2s11.2-28.5 0-47.4c3.7 33.6-5.6 47.4-5.6 47.4h5.6z"/><path id="path3414" style="fill:#68bd45" class="st11" d="m671.9 307.9s11.2-28.5 0-47.4c3.7 33.6-5.6 47.4-5.6 47.4h5.6z"/><path id="path3416" style="fill:#68bd45" class="st11" d="m688 312.7s11.2-28.5 0-47.4c3.7 33.6-5.6 47.4-5.6 47.4h5.6z"/><path id="path3418" style="fill:#68bd45" class="st11" d="m695.4 316.9s10.5-21.5 0-35.7c3.5 25.3-5.3 35.7-5.3 35.7h5.3z"/><path id="path3420" style="fill:#68bd45" class="st11" d="m561.9 280.4s10.5-21.5 0-35.7c3.5 25.3-5.3 35.7-5.3 35.7h5.3z"/><path id="path3422" style="fill:#68bd45" class="st11" d="m566.8 275.4s10.5-21.5 0-35.7c3.5 25.3-5.3 35.7-5.3 35.7h5.3z"/><path id="path3424" style="fill:#68bd45" class="st11" d="m482 319.7s10.5-21.5 0-35.7c3.5 25.3-5.3 35.7-5.3 35.7h5.3z"/><path id="path3426" style="fill:#68bd45" class="st11" d="m275.5 292.5s10.5-21.5 0-35.7c3.5 25.3-5.3 35.7-5.3 35.7h5.3z"/><path id="path3428" style="fill:#68bd45" class="st11" d="m87.1 301.3s10.5-21.5 0-35.7c3.5 25.3-5.3 35.7-5.3 35.7h5.3z"/><path id="path3430" style="fill:#68bd45" class="st11" d="m536.5 294.6s10.5-21.5 0-35.7c3.5 25.3-5.3 35.7-5.3 35.7h5.3z"/><path id="path3432" style="fill:#68bd45" class="st11" d="m309.1 291.9s10.5-21.5 0-35.7c3.5 25.3-5.3 35.7-5.3 35.7h5.3z"/><path id="path3434" style="fill:#68bd45" class="st11" d="m458.3 319.6s11.2-28.5 0-47.4c3.7 33.6-5.6 47.4-5.6 47.4h5.6z"/><path id="path3436" style="fill:#68bd45" class="st11" d="m476.7 307.2s11.2-28.5 0-47.4c3.7 33.6-5.6 47.4-5.6 47.4h5.6z"/><path id="path3438" style="fill:#68bd45" class="st11" d="m297.6 301.7s11.2-28.5 0-47.4c3.7 33.6-5.6 47.4-5.6 47.4h5.6z"/><path id="path3440" style="fill:#68bd45" class="st11" d="m92.7 307.2s11.2-28.5 0-47.4c3.7 33.6-5.6 47.4-5.6 47.4h5.6z"/><path id="path3442" style="fill:#68bd45" class="st11" d="m671.2 296.7s-11.2-28.5 0-47.4c-3.7 33.6 5.6 47.4 5.6 47.4h-5.6z"/><path id="path3444" style="fill:#68bd45" class="st11" d="m706.1 317.3s-11.2-28.5 0-47.4c-3.7 33.6 5.6 47.4 5.6 47.4h-5.6z"/><path id="path3446" style="fill:#68bd45" class="st11" d="m683 318.8s-11.2-28.5 0-47.4c-3.7 33.6 5.6 47.4 5.6 47.4h-5.6z"/><path id="path3448" style="fill:#68bd45" class="st11" d="m553.5 284.7s-11.2-28.5 0-47.4c-3.7 33.6 5.6 47.4 5.6 47.4h-5.6z"/><path id="path3450" style="fill:#68bd45" class="st11" d="m700.5 295.9s-12-21.3 0-35.4c-4 25.1 6 35.4 6 35.4h-6z"/><path id="path3452" style="fill:#68bd45" class="st11" d="m665.6 320.2s-12-21.3 0-35.4c-4 25.1 6 35.4 6 35.4h-6z"/><path id="path3454" style="fill:#68bd45" class="st11" d="m660 284s-12-21.3 0-35.4c-4 25.1 6 35.4 6 35.4h-6z"/><path id="path3456" style="fill:#68bd45" class="st11" d="m314.1 302.9s-12-21.3 0-35.4c-4 25.1 6 35.4 6 35.4h-6z"/><path id="path3458" style="fill:#68bd45" class="st11" d="m106.6 305.5s-12-21.3 0-35.4c-4 25.1 6 35.4 6 35.4h-6z"/><path id="path3460" style="fill:#68bd45" class="st11" d="m547.7 293s-12-21.3 0-35.4c-4 25.1 6 35.4 6 35.4h-6z"/><path id="path3462" style="fill:#68bd45" class="st11" d="m302.8 301.7s-12-21.3 0-35.4c-4 25.1 6 35.4 6 35.4h-6z"/><path id="path3464" style="fill:#68bd45" class="st11" d="m493.5 313.6s-12-21.3 0-35.4c-4 25.1 6 35.4 6 35.4h-6z"/><path id="path3466" style="fill:#68bd45" class="st11" d="m284.7 295.7s-12-21.3 0-35.4c-4 25.1 6 35.4 6 35.4h-6z"/><path id="path3468" style="fill:#68bd45" class="st11" d="m472.2 319.9s-11.2-28.5 0-47.4c-3.7 33.6 5.6 47.4 5.6 47.4h-5.6z"/><path id="path3470" style="fill:#68bd45" class="st11" d="m291.6 286.2s-11.2-28.5 0-47.4c-3.7 33.6 5.6 47.4 5.6 47.4h-5.6z"/><path id="path3472" style="fill:#68bd45" class="st11" d="m80.8 317.1s-11.2-28.5 0-47.4c-3.7 33.6 5.6 47.4 5.6 47.4h-5.6z"/><path id="path3474" style="fill:#68bd45" class="st11" d="m106.6 292.9s-11.2-28.5 0-47.4c-3.7 33.6 5.6 47.4 5.6 47.4h-5.6z"/><path id="path3476" style="fill:#68bd45" class="st11" d="m179.4 289.6s-11.2-28.5 0-47.4c-3.7 33.6 5.6 47.4 5.6 47.4h-5.6z"/><g id="g3478"><polygon id="polygon3480" style="fill:#d1d3d4" points="612.5 263.2 551.8 288.2 607 318.1 667.3 293.6" class="st8"/><g id="g3482"><polygon id="polygon3484" style="fill:#332a4d" points="572 299.4 565.8 295.7 573.2 292.3 579.9 295.9" class="st12"/><polygon id="polygon3486" style="fill:#332a4d" points="588.1 293.6 581.9 289.9 589.2 286.4 596 290" class="st12"/><polygon id="polygon3488" style="fill:#332a4d" points="603.1 287 597 283.3 604.3 279.9 611 283.5" class="st12"/><polygon id="polygon3490" style="fill:#332a4d" points="618.2 280.6 612 276.9 619.4 273.4 626.1 277" class="st12"/><polygon id="polygon3492" style="fill:#332a4d" points="617.1 287.7 610.9 284 618.2 280.6 625 284.2" class="st12"/><polygon id="polygon3494" style="fill:#332a4d" points="602.1 293.8 596 290.1 603.3 286.7 610 290.3" class="st12"/><polygon id="polygon3496" style="fill:#332a4d" points="587.1 301 580.9 297.3 588.2 293.8 595 297.4" class="st12"/><polygon id="polygon3498" style="fill:#332a4d" points="632.3 281.6 626.1 277.9 633.5 274.4 640.2 278" class="st12"/></g><g id="g3500"><polygon id="polygon3502" style="fill:#332a4d" points="586.1 306.8 579.9 303.1 587.2 299.7 594 303.3" class="st12"/><polygon id="polygon3504" style="fill:#332a4d" points="602.1 301 596 297.3 603.3 293.8 610 297.4" class="st12"/><polygon id="polygon3506" style="fill:#332a4d" points="617.2 294.4 611 290.7 618.4 287.3 625.1 290.9" class="st12"/><polygon id="polygon3508" style="fill:#332a4d" points="632.3 288 626.1 284.3 633.5 280.8 640.2 284.4" class="st12"/><polygon id="polygon3510" style="fill:#332a4d" points="631.1 295.1 625 291.4 632.3 288 639 291.6" class="st12"/><polygon id="polygon3512" style="fill:#332a4d" points="616.2 301.3 610 297.5 617.4 294.1 624.1 297.7" class="st12"/><polygon id="polygon3514" style="fill:#332a4d" points="601.1 308.4 595 304.7 602.3 301.2 609 304.8" class="st12"/><polygon id="polygon3516" style="fill:#332a4d" points="646.4 289 640.2 285.3 647.5 281.8 654.3 285.4" class="st12"/></g><g id="g3518"><polygon id="polygon3520" style="fill:#332a4d" points="599.1 315 593 311.3 600.3 307.9 607 311.5" class="st12"/><polygon id="polygon3522" style="fill:#332a4d" points="615.2 309.2 609 305.5 616.4 302 623.1 305.6" class="st12"/><polygon id="polygon3524" style="fill:#332a4d" points="630.3 302.6 624.1 298.9 631.5 295.5 638.2 299.1" class="st12"/><polygon id="polygon3526" style="fill:#332a4d" points="645.4 296.2 639.2 292.5 646.5 289 653.3 292.6" class="st12"/><polygon id="polygon3528" style="fill:#332a4d" points="644.2 303.3 638 299.6 645.4 296.2 652.1 299.8" class="st12"/><polygon id="polygon3530" style="fill:#332a4d" points="629.3 309.4 623.1 305.7 630.5 302.3 637.2 305.9" class="st12"/><polygon id="polygon3532" style="fill:#332a4d" points="614.2 316.6 608 312.9 615.4 309.4 622.1 313" class="st12"/><polygon id="polygon3534" style="fill:#332a4d" points="659.4 297.2 653.3 293.5 660.6 290 667.3 293.6" class="st12"/></g><g id="g3536"><polygon id="polygon3538" style="fill:#332a4d" points="558 291.9 551.8 288.2 559.1 284.7 565.9 288.3" class="st12"/><polygon id="polygon3540" style="fill:#332a4d" points="574 286 567.9 282.3 575.2 278.9 581.9 282.5" class="st12"/><polygon id="polygon3542" style="fill:#332a4d" points="589.1 279.4 582.9 275.7 590.3 272.3 597 275.9" class="st12"/><polygon id="polygon3544" style="fill:#332a4d" points="604.2 273 598 269.3 605.3 265.9 612.1 269.5" class="st12"/><polygon id="polygon3546" style="fill:#332a4d" points="603 280.1 596.8 276.4 604.2 273 610.9 276.6" class="st12"/><polygon id="polygon3548" style="fill:#332a4d" points="588.1 286.3 581.9 282.6 589.3 279.2 596 282.7" class="st12"/><polygon id="polygon3550" style="fill:#332a4d" points="573 293.4 566.9 289.7 574.2 286.3 580.9 289.9" class="st12"/><polygon id="polygon3552" style="fill:#332a4d" points="618.3 274 612.1 270.3 619.4 266.9 626.2 270.5" class="st12"/></g></g><ellipse id="ellipse3554" style="fill:#c2e8f8" rx="6" ry="3.9" class="st13" cy="288.3" cx="565.9"/><ellipse id="ellipse3556" style="fill:#c2e8f8" rx="6" ry="3.9" class="st13" cy="303.1" cx="573.9"/><ellipse id="ellipse3558" style="fill:#c2e8f8" rx="6" ry="3.9" class="st13" cy="313" cx="527.7"/><ellipse id="ellipse3560" style="fill:#c2e8f8" rx="6" ry="3.9" class="st13" cy="276.6" cx="604.9"/><ellipse id="ellipse3562" style="fill:#c2e8f8" rx="6" ry="3.9" class="st13" cy="304.8" cx="633.2"/><ellipse id="ellipse3564" style="fill:#365460" rx="6" ry="3.9" class="st9" cy="304.8" cx="560.5"/><ellipse id="ellipse3566" style="fill:#365460" rx="6" ry="3.9" class="st9" cy="312" cx="574.9"/><ellipse id="ellipse3568" style="fill:#365460" rx="6" ry="3.9" class="st9" cy="290.4" cx="580.9"/><ellipse id="ellipse3570" style="fill:#365460" rx="6" ry="3.9" class="st9" cy="299.7" cx="554"/><ellipse id="ellipse3572" style="fill:#365460" rx="6" ry="3.9" class="st9" cy="289" cx="637.2"/><ellipse id="ellipse3574" style="fill:#365460" rx="6" ry="3.9" class="st9" cy="305.9" cx="539.1"/><path id="path3576" style="stroke:#8492c7;stroke-width:.5;stroke-miterlimit:10;fill:none" class="st14" d="m318.8 269.8s-48.8-1.3-50.2 5.4c-1.3 6.7-24 4-20.7 8.7s8.7 8.4 18 11.9 11.3 2.7 11.3 7.8-1.3 10.2-4.7 9.9-10 3.6-16 0-13.3-4.8-16.7-4.9"/><rect id="rect3578" style="fill:#8492c7" class="st15" height="1.3" width="7.3" y="308.4" x="233.7"/><ellipse id="ellipse3580" style="fill:#8492c7" rx="3" ry="2.3" class="st15" cy="310.7" cx="233.3"/><rect id="rect3582" style="fill:#8492c7" transform="matrix(.083492 -.9965 .9965 .083492 -7.7632 622.16)" height="7.3" width="1.3" y="311.7" x="333.7" class="st15"/><ellipse id="ellipse3584" style="fill:#8492c7" rx="2.3" ry="3" transform="matrix(.083501 -.9965 .9965 .083501 -2.7739 625.09)" cy="314.1" cx="338.4" class="st15"/><path id="path3586" style="stroke:#8492c7;stroke-width:.5;stroke-miterlimit:10;fill:none" class="st14" d="m275.2 299.2s6.4 6.2 10.8 7.5c4.3 1.3 23.3-4.8 24.7-3.8 1.3 1 17.8 8.2 20.4 12.1"/><g id="g3588"><ellipse id="ellipse3590" style="stroke:#f1f2f2;stroke-width:2;stroke-miterlimit:10;fill:none" rx="21" ry="6" class="st16" cy="255.4" cx="215.2"/><path id="path3592" style="stroke:#f1f2f2;stroke-width:.5;stroke-miterlimit:10;fill:#f1f2f2" class="st17" d="m194.2 255.4s2.4 20.6 21 23.4c19.3-1.3 21-23.4 21-23.4s-4.4 8.3-21 6-15.3-3.4-21-6z"/><path id="path3594" style="stroke:#f1f2f2;stroke-width:3;stroke-miterlimit:10;fill:none" class="st18" d="m235.4 256.4s5.6-3.5 5.6-1.3-0.6 7.5-2.8 9.2c-2.2 1.6-6.4 2.1-6.4 2.1"/></g><ellipse id="ellipse3596" style="fill:#a97c50" rx="14.1" ry="2.1" class="st6" cy="258.5" cx="216.1"/><g id="g3598"><ellipse id="ellipse3600" style="stroke:#f1f2f2;stroke-width:2;stroke-miterlimit:10;fill:none" rx="21" ry="6" class="st16" cy="275.4" cx="152.3"/><path id="path3602" style="stroke:#f1f2f2;stroke-width:.5;stroke-miterlimit:10;fill:#f1f2f2" class="st17" d="m173.3 275.4s-2.4 20.6-21 23.4c-19.3-1.3-21-23.4-21-23.4s4.4 8.3 21 6c16.6-2.4 15.3-3.4 21-6z"/><path id="path3604" style="stroke:#f1f2f2;stroke-width:3;stroke-miterlimit:10;fill:none" class="st18" d="m132.1 276.4s-5.6-3.5-5.6-1.3 0.6 7.5 2.8 9.2c2.2 1.6 6.4 2.1 6.4 2.1"/></g><ellipse id="ellipse3606" style="fill:#a97c50" rx="19.6" ry="5.2" class="st6" cy="276.7" cx="151.9"/><ellipse id="ellipse3608" style="fill:#f498c0" rx="6.3" ry="4.2" class="st1" cy="295.9" cx="179.7"/><polygon id="polygon3610" style="fill:#f498c0" points="191 298.4 184.6 294.8 190.9 291.1" class="st1"/><polygon id="polygon3612" style="fill:#f498c0" points="168.4 292.5 174.7 296.1 168.4 299.8" class="st1"/><ellipse id="ellipse3614" style="fill:#f498c0" rx="6.3" ry="4.2" class="st1" cy="308.4" cx="202"/><polygon id="polygon3616" style="fill:#f498c0" points="213.3 310.9 207 307.3 213.3 303.6" class="st1"/><polygon id="polygon3618" style="fill:#f498c0" points="190.7 305.1 197 308.7 190.7 312.4" class="st1"/><path id="path3620" style="fill:#68bd45" class="st11" d="m187.5 291.7s-12-21.3 0-35.4c-4 25.1 6 35.4 6 35.4h-6z"/><path id="path3622" style="fill:#68bd45" class="st11" d="m86.4 282.9s-12-21.3 0-35.4c-4 25.1 6 35.4 6 35.4h-6z"/><path id="path3624" style="fill:#68bd45" class="st11" d="m197.3 298.3s10.5-21.5 0-35.7c3.5 25.3-5.3 35.7-5.3 35.7h5.3z"/><g id="g3626"><path id="path3628" style="fill:#c2e8f8" class="st13" d="m629.8 115.2c-3.1 1-6.2 1.5-9.4 1.5-35.9 0-71.8 0-107.7-0.1-3 0-5.1 1-6.9 2.9-4.8 5-9.4 10.1-14.1 15.1-0.3-0.3-0.7-0.5-1-0.8 0-4.9-0.1-9.9 0-14.8 0.1-1.9-0.4-2.6-2.4-2.4-6.1 0.4-11.9-0.5-17.2-4s-8.4-8.2-9.7-14.3c-0.6-0.5-0.3-1.4-0.8-2v-27.2c0.5-0.5 0.3-1.4 0.8-2 1.7-9.7 9.8-16.2 18.8-17.9 2.4-0.5 4.8-0.4 7.3-0.4h133.3c10.3 0 19 5.6 22.6 14.5 1 2.5 1.6 5 1.6 7.8-0.1 3.1 0 6.1 0 9.2-0.3 0.7-1 1-1.7 1-9.7 0.6-12.8 8.2-12.8 15.2 0 5.5-0.3 10.9 0.2 16.4 0 0.8-0.1 1.7-0.9 2.3z"/><path id="path3630" style="fill:#8cd6f5" class="st19" d="m629.8 115.2c-0.8-6.3-0.4-12.6-0.4-19 0-2.4 0.3-4.8 1.3-7.1 2.6-6.4 7.6-9 14.3-8.8 19.8 0 39.6 0 59.5 0.1 1.3 0 2-0.5 2.7-1.4 2.8-3.5 6.3-6.4 9.2-10.7 0 3.9 0.1 7.2 0 10.4 0 1.3 0.3 1.9 1.7 1.7 8.4-1.4 15.8 7.2 15.3 15.9-0.3 5.9 0.4 11.9-0.4 17.8-0.9 6.9-7.9 12.1-14.3 12-24.6-0.2-49.2-0.1-73.8-0.1-7.8 0-11.8-2.8-14.6-10-0.1-0.3-0.3-0.6-0.5-0.8z"/><path id="path3632" style="fill:#fefefe" class="st20" d="m627.5 68.8c-1.5 2.5-2.9 2.3-5.1 0.7-7.8-5.5-16.3-5-23.4 2-4 3.9-4 11.6-0.1 16.7 4.7 6.1 15.6 7.9 21.9 3.5 2-1.4 3.3-3.3 4.2-5.5 0.6-1.4 0.4-2.2-1.4-2.1-2.3 0.1-4.7 0-7 0-1.2 0-2.2-0.2-2.2-1.7 0-1.7 1.2-1.6 2.3-1.6h10.8c2.3 0 2.6 0.5 2.3 2.8-1 6.9-7 12.5-13.1 13.5-9.1 1.6-18.1-1.7-22-8.9-5.1-9.5-1.1-22.5 12.2-25.3 7.7-1.5 14.6 0.5 20.6 5.9z"/><path id="path3634" style="fill:#fff" class="st3" d="m495.8 80.3v14.3c0 1.2 0 2.2-1.6 2.2s-1.7-1-1.7-2.2v-11.7c0-1.5-0.5-2.1-2-2.1-4.6 0.1-9.2 0.1-13.9 0-1.6 0-2 0.6-2 2.1 0.1 3.8 0 7.7 0 11.5 0 1.3-0.1 2.4-1.8 2.4s-1.5-1.3-1.5-2.3v-28.7c0-1.2-0.1-2.4 1.7-2.4 1.7 0 1.6 1.2 1.6 2.3 0 3.2 0.1 6.4 0 9.6 0 1.6 0.5 2.2 2.2 2.2 4.5-0.1 8.9-0.1 13.4 0 1.7 0 2.4-0.6 2.4-2.4-0.1-3.1 0-6.3 0-9.4 0-1.2-0.1-2.4 1.7-2.4 1.7 0 1.6 1.2 1.6 2.3-0.1 5-0.1 9.8-0.1 14.7z"/><path id="path3636" style="fill:#fefefe" class="st20" d="m529.7 84.4v10.3c0 1.1 0 2.1-1.5 2.1-1.3 0-1.8-0.7-1.8-1.9 0.1-1.8-0.7-1.6-1.8-0.8-6.3 4.5-11.9 4.4-18-0.4-5.4-4.2-5-15.2 0.7-19.1 6.5-4.5 10.9-4.5 17.4 0.1 1.3 0.9 1.8 0.7 1.7-0.9 0-1.2 0.5-1.9 1.8-1.9 1.6 0 1.5 1.1 1.5 2.1v10.4z"/><path id="path3638" style="fill:#fff" class="st3" d="m588.7 72.1c-2.7 2.3-4.8 4.3-7.2 6.1-1.9 1.5-3.8 3-5.6 4.6-0.9 0.8-0.9 1.4 0.1 2.2 4 3.3 7.8 6.7 11.7 10 0.4 0.3 1 0.7 0.8 1.3-0.2 0.7-0.9 0.4-1.4 0.5-1.3 0.1-2.4-0.1-3.4-1.1-3.3-3-6.8-5.9-10.2-8.9-0.4-0.4-0.8-0.8-1.4-0.6-0.6 0.3-0.5 0.9-0.5 1.4v7.3c0 1-0.2 1.9-1.5 1.8-1.2 0-1.4-0.8-1.4-1.8v-30.8c0-0.9 0.2-1.7 1.4-1.7 1.3 0 1.5 0.8 1.5 1.9v14.6c0 0.7-0.3 1.7 0.6 2.1s1.6-0.4 2.2-1c2.8-2.7 5.9-5.1 9-7.5 1.4-1 3-0.5 5.3-0.4z"/><path id="path3640" style="fill:#fefefe" class="st20" d="m550.7 94c2.7 0.3 5.4-0.5 7.5-2.8 1.1-1.2 2.2-1.1 3.2 0 1 1.2-0.4 1.6-0.9 2.2-5.4 6-20.2 5.4-23.7-4.5-2.5-7 1.2-14.7 8.4-16.8 5.7-1.6 11-1.4 15.5 3.1 0.6 0.6 1.9 1.1 0.7 2.2-0.9 0.9-1.8 0.9-2.8-0.1-4.9-4.3-11-4-15.5-0.7-3.3 2.4-4.2 6.7-3 10.8 1.2 3.8 5 6.1 8.7 6.4 0.5 0.3 1 0.2 1.9 0.2z"/><path id="path3642" style="fill:#fdfefe" class="st21" d="m679.4 99.2c-1.9 0-3.8 0.1-5.6 0-2.1-0.1-2.2 0.8-1.6 2.4 1.2 3.1 5.5 4.9 8.8 3.5 1.3-0.5 2.5-1.2 3.5-2.4 0.5-0.6 1.1-1 1.8-0.4 0.8 0.7 0.1 1.3-0.3 1.8-1.9 2.8-6.3 4.1-10.1 3s-6.2-4.2-6.3-8.1c-0.1-3.8 2.4-7.1 6.1-8.3 5-1.6 10.6 1.3 11.6 5.9 0.4 1.7 0.1 2.7-2 2.5-2-0.1-4 0.1-5.9 0.1z"/><path id="path3644" style="fill:#fdfefe" class="st21" d="m658.5 99.2h-6.3c-1.3 0-1.7 0.5-1.3 1.7 0.7 2.2 2 3.8 4.4 4.4 2.8 0.8 5.1 0 7.1-1.9 0.4-0.4 0.7-0.9 1.1-1.2 0.7-0.5 1.4-0.3 1.9 0.2 0.6 0.5 0 1.1-0.3 1.4-3.2 3.6-8.2 5.2-12.9 2.2-3.9-2.4-4.8-8.3-2-12.3 2.6-3.8 8.4-4.6 12.4-1.9 2.1 1.4 3.3 3.2 3.8 5.7 0.2 1.1-0.2 1.6-1.3 1.6-2.2 0-4.4 0.1-6.6 0.1z"/><path id="path3646" style="fill:#fefefe" class="st20" d="m706.5 101v4.9c0 0.6-0.1 1.1-0.8 1.2-0.9 0.1-1-0.6-1-1.2v-7.5c-0.1-4.1-1.4-5.9-4.6-6.1-2.9-0.2-5.3 2.1-5.9 5.5-0.4 2.5-0.1 5-0.2 7.5 0 0.9 0.2 2-1.3 1.9-1.3-0.1-1.1-1.1-1.1-1.9v-12.4c0-0.8-0.3-1.8 1-2 1-0.1 1.3 0.4 1.4 1.4 0.2 1.2 0.8 0.6 1.3 0.2 0.9-0.9 2-1.5 3.2-1.8 4.4-1.1 7.9 1.4 8.1 6 0 1.3-0.1 2.8-0.1 4.3z"/><path id="path3648" style="fill:#fdfefe" class="st21" d="m717.5 103c2.6-3.6 4-7.3 5.6-10.8 0.4-0.9 1-1.9 2-1.3 1 0.5 0 1.4-0.2 2-2.4 6.4-5.9 12.4-8.6 18.7-0.2 0.5-0.5 1-0.9 1.4-0.3 0.4-0.9 0.4-1.3 0.2-0.6-0.3-0.3-0.8-0.1-1.2 0-0.1 0.1-0.3 0.2-0.4 2.8-4 2-7.8-0.3-11.7-1.5-2.5-2.1-5.6-3.9-7.9-0.2-0.3-0.4-0.8 0.1-1 0.7-0.2 1.6-0.4 2.1 0.4 0.7 1.2 1.3 2.5 1.8 3.8 1.1 2.4 2.3 5 3.5 7.8z"/><path id="path3650" style="fill:#f9fcfe" class="st22" d="m645.4 92.5c-2.2-0.2-3.1 0.6-2.9 2.9 0.2 3 0.1 6 0 8.9 0 1 0.8 2.7-1.2 2.7-1.7 0-1-1.7-1-2.6-0.1-3.1 0-6.3 0-9.4 0-1.3 0.2-2.6-1.8-2.5-0.5 0-0.9-0.3-0.9-0.8 0-0.6 0.3-1 0.8-0.9 2.1 0.1 2-1.3 1.9-2.6v-2.1c0-0.8 0.3-1.4 1.2-1.3 0.8 0.1 1 0.6 1 1.3 0 0.5 0.1 1.1 0 1.6-0.3 2.3 0.4 3.5 2.9 3.1 0.5 0.6 0.5 1.1 0 1.7z"/><path id="path3652" style="fill:#dbf1fb" class="st23" d="m645.4 92.5v-1.8c0.6 0 0.9 0.4 0.9 1-0.1 0.6-0.5 0.8-0.9 0.8z"/><path id="path3654" style="fill:#c2e8f8" class="st13" d="m516.6 94c-5.9 0-10.4-4.2-10.4-9.7 0-5.4 4.6-9.3 10.3-9.7 5.4-0.3 10.3 5.3 10.4 9.7 0 5.2-5.7 10.6-10.3 9.7z"/><path id="path3656" style="fill:#8ed6f5" class="st24" d="m678.5 97.3h-4.9c-1.4 0-1.5-0.7-1-1.8 0.8-1.6 4.1-3.5 6.2-3.2 2.3 0.3 4.4 1.1 5.7 3.2 0.7 1.1 0.4 1.8-1 1.8h-5z"/><path id="path3658" style="fill:#8ed6f5" class="st24" d="m657.4 97.3h-4.7c-1.5 0.1-1.8-0.5-1.2-1.8 0.9-1.9 3.5-3.5 6-3.2 2.4 0.2 4.5 1.1 5.6 3.6 0.4 1 0.2 1.5-0.9 1.5-1.5-0.1-3.1-0.1-4.8-0.1z"/></g><path id="path3660" style="stroke:#c2e8f8;stroke-miterlimit:10;fill:none" class="st25" d="m81 181"/><g id="bee"><path id="path3663" style="fill:#ffde17" class="st10" d="m219.1 169.6c0-0.9-0.4-1.7-1.2-2.4v4.8c0.8-0.6 1.2-1.5 1.2-2.4z"/><path id="path3665" d="m214.4 165.7v7.8c1.4-0.2 2.7-0.7 3.5-1.5v-4.8c-0.8-0.7-2-1.3-3.5-1.5z"/><ellipse id="ellipse3667" style="fill:#c2e8f8" rx="2.7" ry="4" class="st13" cy="161.6" cx="213.5"/><ellipse id="ellipse3669" style="fill:#c2e8f8" rx="2.7" ry="4" class="st13" cy="177.6" cx="213.5"/><path id="path3671" style="fill:#ffde17" class="st10" d="m207.5 169.6c0 0.9 0.4 1.7 1.1 2.3v-4.7c-0.7 0.8-1.1 1.6-1.1 2.4z"/><path id="path3673" style="fill:#ffde17" class="st10" d="m213.3 165.7c-0.4 0-0.8 0-1.2 0.1v7.8c0.4 0.1 0.8 0.1 1.2 0.1s0.8 0 1.1-0.1v-7.8c-0.3-0.1-0.7-0.1-1.1-0.1z"/><path id="path3675" d="m208.6 167.3v4.7c0.8 0.8 2.1 1.4 3.5 1.6v-7.8c-1.4 0.1-2.6 0.7-3.5 1.5z"/></g><path id="path3677" d="m205.5 163"/><path id="path3679" d="m254 180"/><path id="path3681" style="stroke-miterlimit:10;stroke-opacity:0;fill:#ffde17" class="st26" d="m313 205"/><path id="beePath" d="m218 167.3c2.4 0.6 42.5 11.4 58.4 13.1 2.2 0.2 6.5 0.6 10-2 2.9-2.1 5.5-6.2 4.7-10.7-1-5.5-6.8-9.6-12.7-8.7-5.3 0.9-9.6 6.3-9.3 10.7 0.5 9.3 21.7 15.2 34.7 18.7 98 26.4 147.6 39.7 174.7 40.3 24.8 0.6 57.7 6.9 87-6.3 16.2-7.3 22.8-16.1 26-21.7 8-14 6.3-27.9 5.7-31.7-0.4-2.5-4.3-24.9-22-33.7-10-5-21.8-2.2-45 3.7-7.3 1.8-23.5 6.2-50.7 17.7-19.5 8.1-33.6 15.3-37.5 17.3-89.8 45.5-108 53.6-130 61-11.9 4-31.9 10.2-58 12-20.7 1.4-35.2 2.2-50-6.3-13.5-7.8-31.2-25.5-28.7-46.7 1.9-15.6 13.8-25.3 16-27 10.8-8.7 23.2-10.3 32.7-10.7 40.1-1.4 81.6 18.2 89.7 22 46.1 21.5 82 29.7 153.9 46 0 0 69.4 15.8 94.1-5.4 6.7-5.8 11.3-14.7 11.3-14.7 2.9-5.6 5.4-10.4 3.7-15-2.4-6.6-10.4-11.5-16.3-9-4 1.7-5.6 6-6 7.3-4.2 10.6-2.1 20.7 3.7 24.3 6 3.8 14.3-0.3 16.3-1.3 13.8-6.9 17.5-23.9 18.7-29 3.6-16.3 1.9-42.6-14.7-53-11-7-24.3-4.2-31-2.7-58.6 13.3-108 40.3-108 40.3-72.3 39.6-100.8 52.5-130 63 0 0-22.7 8.1-59.7 13.7-46.3 6.9-58.8 0.5-65.3-5-10.9-9-13.8-22.7-14.7-26.3-1.5-6.3-4.9-21.3 3.3-33 8.5-11.8 26.6-16.5 45-11.2z" style="stroke-miterlimit:10;stroke-opacity:0;fill:none" class="st27"/></g><g id="Layer_1_1_" transform="translate(-50.4 -48.792)"><g id="g3685"><path id="path3687" style="fill:#c2e8f8" class="st13" d="m357.9 306.7c-2.7 2.2-5.8 3.3-9.2 3.4-7.9 0.2-14-3.5-19.1-9.3-3.3-3.8-4.6-8.4-6.1-13-1.3-4-2-8.1-2.6-12.2-0.4-2.5-0.7-5.1-0.8-7.7-0.3-6.4 0-12.9 0.7-19.3 0.4-3.5 1.2-6.9 1.8-10.3 0.1-0.4 0.3-0.9 0-1.4-1.6 1.2-2 0.4-1.8-1.2v-0.5c-2.2-1.7-0.2-3.8-0.4-5.7-0.1-0.7 0.5-1.4-0.8-1.3-0.8 0.1-0.8-0.5-0.6-1 0.3-1.5 0.9-3 1.6-4.4 0.2-0.4 0.7-0.9 0.1-1.2-1.7-0.8-0.5-1.1 0.1-1.6l3.6-3c0.3-0.2 0.5-0.5 0.7-0.8 3.4-6.1 8-11.4 11.6-17.3 4.5-7.3 8.5-14.8 11.8-22.7 2.8-6.7 5-13.7 6.2-20.9 0.6-3.8 1.1-7.7 0.8-11.7-0.1-0.7 0.1-1.6-1.1-0.8-0.7 0.5-1 0.1-1-0.6 0-0.9-0.1-1.6-1-2-0.4-0.2-0.3-0.7-0.4-1.1-0.2-1.4 0.4-2.8-0.7-4.3-0.5-0.7 0.5-2.3 0.8-3.5 0.4-1.9 0-3.7-0.2-5.5-0.4-3.6 0-7.1 0.7-10.6 0.2-1.2 0.3-1.9-1.4-2.2-2.3-0.4-4.8-0.3-6.8-1.9 0.7-0.6 1.4-0.2 2.1-0.1 1.8 0.3 3.5 0.6 5.3 0.6 1.1 0 1.7-0.4 1.9-1.5 0.4-2.4 0.9-4.8 1.3-7.1 0.2-1.2-0.1-1.8-1.4-1.8-3.5-0.1-7 0.3-10.4 1.5-2.2 0.8-3.5 2.3-4.5 4.3-2.1-3.1-0.7-8.3 3.1-10.1 3.1-1.4 6.4-1.8 9.6-1.2 2.4 0.4 4.4-0.2 6.6-0.8 4-1.2 7.7-3.2 11.5-5 6.1-2.9 12.4-4.6 19.1-5.2 4.8-0.4 9.4 0 14 0.9 4.9 1 9.5 3.1 13.7 5.8 3.1 2 6.4 3.2 9.9 4.4 1.3 0.4 2.8 0.1 4.3 0 4.4-0.4 8.7-0.2 12.7 2.1 3.1 1.8 4.8 5.9 2.5 9.9-0.5-0.3-0.5-0.9-0.8-1.4-0.9-1.6-2.4-2.5-4-3.1-4-1.4-8-1.8-12.3-0.9 1 1 1.8 2.1 1.9 3.4 0.1 1.7 0.7 3.2 1.3 4.8 0.8 2 1.1 2.3 3.3 2.1 1.1-0.1 2.3-0.7 3.3 0.1-1.1 0.5-2.3 1-3.5 1.1-1 0.1-1.6 0.3-1.4 1.8 0.6 4 0.6 7.9-0.4 11.9-0.5 2.1-0.7 4.6 0.4 6.8 0.2 0.3 0.5 0.8 0 1.1-1.2 0.6-0.9 1.6-0.9 2.5-0.1 0.9 0.4 1.9-1.1 2.3-0.6 0.2-0.3 1.1-0.2 1.7 0.1 0.3 0.2 0.6-0.1 0.7s-0.5-0.1-0.7-0.3c-0.3-0.4-0.7-1.1-1.3-0.8-0.7 0.3-0.3 1-0.4 1.6-0.2 7.5 1.6 14.6 3.9 21.7 2.9 8.9 7.1 17.3 11.5 25.5 3 5.6 6.4 11 10 16.2 3.1 4.4 6 8.9 8.9 13.4 1.1 1.7 2.9 2.6 4.3 3.9 0.5 0.5 1.3 0.8 0.1 1.4-0.6 0.3-0.1 0.8 0 1.2 0.5 1.6 1.3 3.2 0.7 5 0 0.1 0 0.3 0.1 0.5 0.5 1 1.1 1.9 0.4 3.3-0.3 0.6 0.1 2-0.2 2.9-0.1 0.3-0.3 0.6-0.4 0.9-0.7 0-0.4-0.8-0.9-1-0.4 0.1-0.3 0.4-0.3 0.7v10.4c-0.1 5.6-0.7 11.1-1.3 16.6-0.4 4.2-0.9 8.3-1.6 12.4-0.5 3.2-1.1 6.5-1.8 9.7-0.8 3.5-2.6 6.6-3.9 9.9-0.1 0.1-0.3 0.2-0.4 0.3-0.4 0.1-0.5-0.1-0.6-0.4 0.2-1.4 1-2.7 1.5-4 0.3-0.9 0.7-1.7 0.9-2.6 1.9-7.5 3.8-15.1 4.5-22.8 0.8-8.4 1.6-16.9 1.4-25.3 0-0.3 0.1-0.7-0.1-1.1-1.4 3.5-3.4 6.6-6.2 9-2.3 1.9-4.8 3.3-7.6 4.4-1 0.4-1.9 0.8-2.8 1.3-2.3 1.4-4.8 2.4-7.5 2.9 2.8 0.4 5.4 1.1 7.9 2.4 2.2 1.1 4.1 2.7 5.8 4.6 0.3 0.4 0.7 0.8 0.9 1.3 0.1 0.3 0.3 0.6 0 0.8-0.3 0.3-0.6 0.3-1 0.1s-0.7-0.5-1-0.9c-5-6.4-16.2-8.4-22.6-5.3-1.5 0.7-1.8 0.6-2.1-0.6 2.2-1.8 4.9-2.1 7.6-2.4 2.2-0.2 2.3-0.3 2.4-2.6 0-0.6 0-1.3 0.2-1.9 0.2-1.9 0.4-3.7 0.5-5.6 0.2-3.9 0.7-7.9 1-11.8 0.4-4.2 0.8-8.3 1.1-12.5 0.4-1.3 0.1-2.6 0.4-3.9 0.3-1.2 0.1-2.5 0.3-3.7 0.4-1.2 0.3-2.4 0.2-3.5-0.1-0.1-0.1-0.3-0.2-0.4-0.2-0.5-0.6-0.9-1.1-1.2-0.1-0.1-0.3-0.2-0.4-0.3-0.2-0.1-0.3-0.1-0.5-0.2-5.7-0.1-11.4 0-17.2 0-0.8 0-1.6 0.1-2.4-0.2-0.4-0.2-0.6-0.6-0.5-1 0.4-3-1.6-4.5-3.6-6-3.6-2.7-7.8-3.5-12.1-4.1-5.2-0.8-10.4-1.3-15.7-1.1-6.7 0.3-13.3 1.1-19.6 3.8-1.3 0.6-2.5 1.2-3.6 2-1.8 1.3-3.2 2.8-2.9 5.3 0.1 0.4 0 0.8-0.4 1.1-1.2 0.5-2.4 0.2-3.6 0.2-3.5 0.1-7-0.2-10.5 0.2-0.2 0.1-0.3 0.3-0.5 0.4-1.1 0.8-1.3 1.9-1.2 3.2 0.7 6.6 1.5 13.3 2.2 19.9 0.7 7.4 1.8 14.7 2.3 22.1 0 0.4 0.1 0.8 0 1.2-1.6 1.1-3.3 1.3-5 0.6-2.3-0.8-4.4-1.5-6.8-0.1-0.6 0.4-1.4 0.4-2.2 0.3-0.3-0.1-0.5-0.3-0.6-0.5-0.2-0.7-0.7-1.2-1.2-1.7-5.5-5.1-10.2-11.6-12.5-18.3-1.1 5.5-1.8 11.2-2.1 16.9-0.2 3.8-0.1 7.7 0.1 11.6 0.3 5.3 1.1 10.5 2.2 15.7 1 4.7 2.2 9.4 4.8 13.4 4.5 6.8 10.7 11.2 19.2 11.5 2.7 0.1 5.2-0.7 7.6-1.9 0.6-0.3 1.1-0.7 1.8-0.7 0.7 0.7 0.9 0.8 1.1 1z"/><path id="path3689" style="fill:#6fb2cb" class="st28" d="m338.9 107.3c-0.1-2 1.2-3.1 2.7-3.9 4.1-2.2 8.5-2.5 13.1-2.3 1 0 1.4 0.5 1.1 1.6-0.6 2.9-1.1 5.7-1.6 8.6-0.2 1-0.7 1.1-1.6 1.2-2.8 0.1-5.5-0.5-8.2-1-2.3-0.8-4.5-1.7-5.5-4.2z"/><path id="path3691" style="fill:#6fb2cb" class="st28" d="m438.6 113.2c-1.7 0.1-3.3 0.2-5 0.4-0.8 0.1-1.3-0.2-1.6-1-0.6-2-1.8-3.8-1.8-6.1 0-1.6-1-2.8-2.3-4.1 4.1-1 7.9-0.8 11.7 0.2 1.9 0.5 3.6 1.2 5 2.6 0.4 0.4 0.9 0.8 0.9 1.4 0 1.5-1.1 2.5-1.4 3.9-1.5 1.5-3.6 1.9-5.5 2.7z"/><path id="path3693" style="fill:#bde6f7" class="st29" d="m457.6 298.4l0.4 0.4c-2.9 6.5-7.9 10.8-14.9 11.9-4.5 0.7-9.2 0.5-13.5-1.7-5.4-2.9-11.2-4.6-17.2-5.6-4.1-0.7-8.3-1.2-12.4-1.6-4.9-0.5-9.9-0.5-14.8-0.6-0.2-0.3-0.2-0.6 0.1-0.8 1.7-0.6 3.5-0.3 5.3-0.2 1.4 0.4 2.7 0.2 4.1 0.2 8.6 0.1 17.1 1.5 25.4 3.6 0.3-0.6-0.2-0.9-0.4-1.3-2.7-5.1-3.6-10.5-3.2-16.2 0.3-4.5 1.2-8.9 2.9-13.1 0.4-0.9 0.8-1.8 1.4-2.6 0.4-0.5 0.8-1.2 1.5-0.9 0.8 0.4 0.2 1.1 0 1.6-0.7 1.3-1.2 2.6-1.7 4-2.6 7-3.1 14.1-1.3 21.4 1.1 4.4 3.6 7.7 7.8 9.8 5.5 2.6 11 4 17.1 2.7 5.5-1.2 9.1-4.9 12.1-9.4 0.3-0.7 0.4-1.5 1.3-1.6z"/><path id="path3695" style="fill:#bde6f7" class="st29" d="m385.3 300.5v0.7c-5.3 0.1-10.5 0.5-15.7 1.4-1 0.2-2 0-3.1 0.2-2.6 0.5-5.3 0.7-7 3.2-0.3 0.4-0.8 0.8-1.5 0.8h-0.7c-0.1-0.8 0.6-1.1 1.1-1.4 6.8-5 8.8-12 7.9-20-0.6-5.3-2-10.4-4.5-15.2-0.2-0.3-0.5-0.7-0.2-1.1 0.4-0.4 0.9-0.1 1.3 0.1 0.5 0.3 0.8 0.8 1 1.4 2.9 6.2 4.6 12.7 4.3 19.6-0.2 3.6-1.1 7-2.9 10.2-0.3 0.5-0.7 0.9-0.7 1.6 2.7-0.3 5.4-0.6 8.1-1.1 3.4-0.5 6.9-0.4 10.3-0.8 0.6-0.2 1.5-0.3 2.3 0.4z"/><path id="path3697" style="fill:#76b8c8" class="st30" d="m444.1 110.4c-0.5-1.6 0.6-2.7 1.4-3.9 0.5 0.4 0.3 0.9 0.4 1.4-0.3 1.1-0.8 2-1.8 2.5z"/><path id="path3699" style="fill:#a3d6ea" class="st31" d="m385.3 300.5c-7.4 0.1-14.7 0.8-22.2 2.2 6.8-9.7 5.1-19.6 1.4-29.6-0.5-1.4-0.6-3.5-2.8-4.1 2.8 5 4.2 10.3 5 15.8 0.7 5.1 0 10-2.3 14.5-1.5 2.9-4 5.1-6.7 7-0.1 0.1-0.2 0.2-0.4 0.3-2.8 1.4-5.6 2.6-8.8 2.8-4.2 0.2-8.1-1.1-11.6-3.3-3.8-2.4-7.1-5.2-9.2-9.3-2-4-3.3-8.2-4.3-12.5-2-8.5-2.8-17.2-2.4-26 0.2-4.8 0.6-9.6 1.5-14.3 0.3-1.7 0.5-3.5 1-5.3 0.9 0.9 1 2.2 1.5 3.3 2.2 4.5 4.7 8.8 8.3 12.4 1.2 1.3 2.3 2.7 3.8 3.8 0.4 0.3 1 0.7 0.6 1.4-1.9 1.5-4.1 2.5-5.8 4.3-2.8 2.9-4.9 6.3-6.4 9.9 2.1-4.8 4.8-9.1 9.2-12.2 1-0.7 2.1-1.4 3.4-1.7 1.2-0.3 2.4-0.4 3.5-1.1 1.3-0.8 2.9-0.3 4.2 0.2 1.8 0.7 3.5 1.4 5.4 0.3 0.1-0.1 0.4 0.2 0.6 0.2 1.7 2.1 3.9 2.3 6.5 2.3 22.8-0.1 45.6-0.1 68.4 0 1.1 0 2.2-0.3 3.1 0.6 0.3 1.2 1.1 0.3 1.5 0.2 5.7-2.6 11.3-1.9 16.9 0.3 2.7 1.1 4.9 2.9 6.8 5.2 0.3 0.4 0.5 1 1.2 0.8-0.8-2-3.6-4.6-6.7-6.2-2.8-1.5-5.9-1.7-8.9-2.9 4-0.5 7.1-2.8 10.7-4.2 2-0.8 3.9-1.8 5.7-2.9 4-2.3 6.7-5.8 8.4-10.1 0.2-0.5 0.1-1.2 0.8-1.5 0.1 0.1 0.3 0.3 0.3 0.4 0 4 0.2 8-0.1 11.9-0.2 2.3-0.3 4.7-0.5 7-0.4 4.9-1 9.7-1.7 14.5-0.3 2.3-0.5 4.7-1.2 6.9-1.7 5.5-2.2 11.4-5.2 16.5-2 3.6-4.5 6.8-7.9 9.1-2.2 1.5-4.6 2.4-7.2 2.7-7.2 0.8-13.6-1.1-19.4-5.4-2.4-1.8-3.5-4.4-4.3-7.1-2.3-8.7-1.3-17.1 2.4-25.2 0.2-0.4 0.4-0.8 0.7-1.2 0.2-0.3 0.5-0.6 0.4-1.1-1.7 0.8-3 3.8-4.6 10.8-0.9 4-1.1 8.1-0.5 12.1 0.6 4.1 1.7 7.9 4.2 11.4-8.8-1.9-17.5-3.7-26.4-3.7-1.4-0.5-2.8 0.1-4.2-0.3-2 0.1-3.9 0.1-5.7 0.1z"/><path id="path3701" style="fill:#8492c7" class="st15" d="m429.6 262.4h-36-36.6c-1.2 0-2.4 0.6-3.6-0.4-0.9-0.7-1.5-1.3-1.8-2.4-0.4-4-0.9-8-1.3-11.9-0.6-5-1.1-10-1.7-15-0.5-4.7-1-9.5-1.4-14.2-0.1-1.2-0.5-2.4-0.4-3.6 0.1-1.1 0.5-2 1.7-2.3 0.6-0.4 1.3-0.3 2-0.3 22.9-0.2 45.9-0.2 68.8-0.1 7 0 13.9 0 20.9 0.1 0.6 0 1.3-0.1 1.8 0.3s1 0.9 1.4 1.4c0.2 1.3 0.2 2.6 0 3.9s0.3 2.6-0.3 3.8 0.1 2.6-0.4 3.8c-0.2 5.1-0.8 10.2-1.3 15.3-0.3 3.1-0.5 6.1-0.8 9.2-0.7 1.8-1 3.7-0.6 5.6-0.1 1.4 0.3 2.8-0.3 4.1-0.8 1.6-2.5 0.5-3.7 0.8-2.2 0.4-4.4 1-6.4 1.9z"/><path id="path3703" style="fill:#a3d6ea" class="st31" d="m363.5 211.8c-0.9-2.7-0.1-4.6 2.7-6.5 4-2.8 8.6-4 13.3-4.8 5-0.9 10.1-1.2 15.3-1.1 4.7 0.2 9.3 1 14 1.7 4.3 0.6 7.9 2.6 11.1 5.4 1.7 1.5 2.2 3.3 1.5 5.4-0.1 0.1-0.2 0.1-0.3 0.2-0.6 0.2-1.3 0.1-1.9 0.1h-53.5c-0.6 0-1.3 0.1-1.9-0.1-0.2-0.1-0.3-0.2-0.3-0.3z"/><path id="path3705" style="fill:#a3d6ea" class="st31" d="m383.6 141.3c-3-1.8-4.2-4.5-3.8-7.8 0.2-1.3-0.3-1.8-1.3-2.2-1.3-0.6-2.4-1.4-3.3-2.4-1.3-1.5-1.3-3.1 0-4.7 1.7-2.2 4.2-2.9 6.7-3.7 3.6-1.2 7.3-2.4 11.3-2.1 5.2 0.5 10.2 1.8 14.6 4.6 2.7 1.7 3 4.4 0.6 6.4-1.9 1.6-3.2 2.8-2.8 5.9 0.5 3.5-4 6.3-7.9 5.6-1.3-0.3-2.6-0.7-3.9-1.3-0.4-0.2-0.5-0.1-0.6 0.3-0.8 0.6-1.4-0.3-2.1-0.2-1.2-0.3-1.8 0.7-2.5 1.3-1.6 0.8-3.3 1-5 0.3z"/><path id="path3707" style="fill:#d37a9f" class="st32" d="m391.2 139.2c0.8-0.3 1.3 0.7 2 0.6 0.3 0.1 0.5 0.3 0.8 0.4 0.7 0.8 0.4 1.8 0.3 2.7-0.5 1.9-2 2.6-3.7 2.8-2.2 0.3-4.4-0.2-6.4-1.1-0.2-0.3-0.3-0.6-0.5-0.9-0.6-1.3-0.1-2 1.4-2.1 1.4-0.1 2.9 0.3 4-1.1 0.4-0.9 1.4-0.9 2.1-1.3z"/><path id="path3709" style="fill:#799ac2" class="st33" d="m442.1 212.5h-93.6c0-0.1 0-0.2 0.1-0.3 2-0.4 4.1-0.1 6.1-0.2h8.8 57.7 19c0.6 0 1.3-0.2 1.9 0.2v0.3z"/><path id="path3711" style="fill:#444648" class="st34" d="m412.7 123.6c-2.1 0-2.8-0.7-2.8-2.7 0-2.2 0.7-2.9 2.8-2.9 2 0 2.7 0.7 2.8 2.8-0.1 2-0.8 2.8-2.8 2.8z"/><path id="path3713" style="fill:#393c3c" class="st35" d="m370.3 123.2c-2 0-2.7-0.7-2.7-2.8 0-2 0.7-2.8 2.7-2.8 2.1 0 2.8 0.7 2.8 2.9 0 2-0.7 2.7-2.8 2.7z"/><path id="path3715" style="fill:#bde6f7" class="st29" d="m337.8 260c-4 2.2-7.3 5.1-9.6 9.1-0.8 1.4-1.5 2.8-2.3 4.2-0.3 0.6-0.4 1.5-1.7 2 0.7-1.5 1.2-2.7 1.8-3.9 2.5-4.8 5.6-9 10.5-11.5 0.3-0.2 0.6-0.2 1-0.3 0.1 0.1 0.2 0.3 0.3 0.4z"/><path id="path3717" style="fill:#cae3f6" class="st36" d="m442 212.2h-20.8c-0.1-0.1-0.2-0.1-0.1-0.2 0-0.1 0.1-0.1 0.1-0.1h19c0.7 0 1.3-0.3 1.8 0.3z"/><path id="path3719" style="fill:#d17ca7" class="st37" d="m389.4 140.5c0.1 1.2-0.9 1.2-1.6 1.4-0.4 0.1-0.8 0-1.2 0-2.9 0-2.9 0-2.4 2.7-1.5-0.9-1.1-2.1-0.7-3.3 1.8 0.1 3.5 0.1 5.2-0.8 0.3-0.2 0.5-0.2 0.7 0z"/><path id="path3721" style="fill:#cae3f6" class="st36" d="m363.4 212.2h-14.9c0.5-0.6 1.2-0.3 1.8-0.3h13.1c0.1 0.1 0.1 0.1 0.1 0.2 0 0 0 0.1-0.1 0.1z"/><path id="path3723" style="fill:#8296c6" class="st38" d="m440 255.5c-1.1-2-0.8-4.1 0.6-5.6-0.2 1.9-0.1 3.8-0.6 5.6z"/><path id="path3725" style="fill:#7ab4c8" class="st39" d="m414 114.5c1.9 0.3 3.3 0.6 3.9 2.7-1.6-0.5-2.6-1.5-3.9-2.7z"/><path id="path3727" style="fill:#82b7cb" class="st40" d="m364.3 116.7c0.9-1.6 2-2.2 3.7-2.6-1.1 1.2-2.2 1.8-3.7 2.6z"/><path id="path3729" style="fill:#7b9cbe" class="st41" d="m442.8 225.4c0.1-1.3-0.4-2.6 0.4-3.8-0.3 1.2 0.2 2.6-0.4 3.8z"/><path id="path3731" style="fill:#7b9dbe" class="st42" d="m443.4 217.8v-3.9c0.6 1.3 0.5 2.6 0 3.9z"/><path id="path3733" style="fill:#7c99c0" class="st43" d="m443.4 213.9c-0.8-0.2-1.2-0.6-1.4-1.4 0.9 0.1 1.3 0.6 1.4 1.4z"/><path id="path3735" style="fill:#a3d6ea" class="st31" d="m394.3 142.9c-0.1-0.9 0.2-1.9-0.3-2.7 1.1 0.8 0.6 1.8 0.3 2.7z"/><path id="path3737" style="fill:#bde6f7" class="st29" d="m390.8 300.5c1.4 0.2 2.8-0.4 4.2 0.3-1.4-0.2-2.9 0.4-4.2-0.3z"/><path id="path3739" style="fill:#8593c8" class="st44" d="m425.4 265.5c-0.5 0.6-1.2 0.3-1.8 0.3h-63.3c-1.1 0-2-0.2-2.8-1.1 0.2-1 1-0.6 1.5-0.7 1.8-0.1 3.6 0 5.4 0h58.4 1.9c0.9 0.3 1.1 0.8 0.7 1.5z"/><path id="path3741" style="fill:#c1e6f5" class="st45" d="m335.1 287.2c0.1-5.2 3.2-10.8 8.5-11.5 3.2-0.4 5.7 0.9 7.6 3.3 4 5.3 3.9 12.3-0.5 17.3-3.5 4-9.5 3.8-13.1-1-1.6-2.1-2.5-5.2-2.5-8.1z"/><path id="path3743" style="fill:#c0e5f4" class="st46" d="m448.2 290.5c0.2 3.9-0.9 6.9-3.4 9.5-3.4 3.5-8.4 3.4-11.9-0.2-4.2-4.3-4.3-12.9-0.4-17.3 4.3-4.9 11-4.1 14.2 1.7 1.1 2 2 4.1 1.5 6.3z"/><path id="path3745" style="fill:#7799bc" class="st47" d="m425.4 265.5c0-0.6-0.1-1.1-0.8-1h-1-64c-0.7 0-1.4-0.2-2 0.3-0.3-0.1-0.5-0.3-0.7-0.6 0.5-0.3 1-0.2 1.5-0.2h66.3c0.5 0 0.9-0.1 1.4 0.1 1 1-0.5 0.9-0.7 1.4z"/><path id="path3747" style="fill:#b0cfec" class="st48" d="m426.1 264.1h-67.3-1.9c0.5-0.6 1.2-0.4 1.8-0.4h65.8c0.5 0.1 1.1-0.1 1.6 0.4z"/><path id="path3749" style="fill:#c0e5f4" class="st46" d="m333 271.4c1 0 3.4 3.2 3.3 4.5 0 0.5-3.3 3.8-3.8 3.7-1.2 0-4.4-2.3-4.4-3.1 0-3.9 1.2-5.2 4.9-5.1z"/><path id="path3751" style="fill:#bfe4f3" class="st49" d="m354.7 269c0.7 0.2 1.9-0.5 2.4 0.4 0.7 1.2 1 2.5 1.4 3.9 0.2 0.7-3 3.3-3.9 3.3s-4-2.4-4-3.2c0.1-2.9 1.4-4.4 4.1-4.4z"/><path id="path3753" style="fill:#c0e5f4" class="st46" d="m341.1 273c-0.7 0-2.7-3.4-2.7-4.5 0-0.4 3.3-3.3 3.7-3.4 0.7 0 4.3 2.4 4.2 2.9-0.3 1.4-0.4 3.1-1.2 4.2-0.9 1.3-2.8 0.1-4 0.8z"/><path id="path3755" style="fill:#bee3f3" class="st50" d="m427.7 274.9c0.9 0 3.2 3.4 3.2 4.5 0 0.5-3.2 3.6-3.7 3.6-1.3-0.1-4.5-2.4-4.5-3.2 0.1-3.7 1.4-5 5-4.9z"/><path id="path3757" style="fill:#bee4f3" class="st51" d="m436.5 276.2c-0.6-0.3-1.4 0.6-1.8-0.2-0.7-1.3-1.1-2.6-1.5-4-0.2-0.5 3-3.3 3.7-3.4 0.8-0.1 3.9 2.5 3.9 3.2-0.1 3.3-1.1 4.4-4.3 4.4z"/><path id="path3759" style="fill:#bee3f2" class="st52" d="m449.2 272.4c0.8 0.2 1.9-0.4 2.4 0.4 0.7 1.2 1 2.7 1.4 4 0.1 0.5-3.2 3.1-3.8 3.2-0.6 0-4-2.6-3.9-3 0.4-1.4 0.6-2.9 1.3-4.2 0.4-0.8 1.7-0.2 2.6-0.4z"/><path id="path3761" style="fill:#b3d0ed" class="st53" d="m363.4 212.2v-0.3h57.8v0.3h-57.8z"/><path id="path3763" style="fill:#4a7584" class="st54" d="m394.8 121.3c-0.5 0.7-1.4 0.5-2 0.9-1.6 0.9-1.6 2-0.1 3 2.2 1.3 4.5 1 6.6-0.1 1.4-0.8 1.4-0.1 1.5 0.9 0.2 1.9-0.8 3.1-2.2 4-3.1 2-8 2.3-11.4 0.1-3.1-2.1-3.1-5.4 0-7.4 2-1.4 4.9-1.9 7.6-1.4z"/><path id="path3765" style="fill:#dceef5" class="st55" d="m395.8 122.2c1.4 0 2.5 0.3 3.4 1 0.8 0.5 0.8 1.1-0.1 1.5-1.9 0.8-3.9 1-5.8 0.1-0.4-0.2-0.9-0.4-0.9-0.9 0-0.7 0.6-0.9 1-1.1 0.7-0.4 1.7-0.7 2.4-0.6z"/><path id="path3767" style="fill:#c7cbe2" class="st56" d="m389.4 140.5h-0.7c0.4-1.2 1.3-1.5 2.5-1.3-0.4 0.7-1.3 0.7-1.8 1.3z"/><path id="path3769" style="fill:#c8d3d6" class="st57" d="m413.6 121.1c-0.1 0.6-0.4 1-1 1s-1-0.4-1-0.9c0-0.7 0.4-1.1 1.1-1.1 0.5 0 0.8 0.5 0.9 1z"/><path id="path3771" style="fill:#cdd6db" class="st58" d="m371.4 120.8c-0.1 0.5-0.4 1-1 0.9-0.7 0-1.1-0.5-1-1.1s0.5-0.9 1.1-0.9c0.6 0.1 0.9 0.5 0.9 1.1z"/><path id="path3773" style="fill:#365460" class="st9" d="m353.1 288.4c-0.2 3-1.3 6.5-4.8 8.8-2.5 1.6-5.5 1.4-7.9-0.3-5.5-3.9-5.8-14.1-0.7-18.4 3.7-3.1 8.4-2.3 11.3 1.8 1.3 1.9 2.1 4.6 2.1 8.1z"/><path id="path3775" style="fill:#365460" class="st9" d="m447.6 290.9c0 3.3-1 6.2-3.3 8.6-3.1 3.1-7.4 3.1-10.5 0-4.4-4.3-4.5-12.9-0.1-17.3 3.3-3.3 8.1-3.1 11.1 0.5 1.9 2.2 2.8 5 2.8 8.2z"/><path id="path3777" style="fill:#365460" class="st9" d="m332.6 272.4c0.9-0.1 2.7 2 2.8 3.2 0 0.4-2.5 3-2.9 3-0.7 0-3.2-1.8-3.3-2.4-0.3-2.7 0.4-3.5 3.4-3.8z"/><path id="path3779" style="fill:#365561" class="st59" d="m351.7 272.8c0.3-2.4 1.4-3.3 4-3.1 0.6 0.1 1.9 2.4 1.8 3.3 0 0.6-2.5 2.5-3.1 2.4-0.9 0-2.8-1.9-2.7-2.6z"/><path id="path3781" style="fill:#365560" class="st60" d="m341.7 272.1c-0.8 0-2-1.8-2.1-3.1 0-0.6 2.2-2.8 2.8-2.7 0.6 0 2.9 1.9 2.9 2.3-0.1 2.4-1.2 3.4-3.6 3.5z"/><path id="path3783" style="fill:#375461" class="st61" d="m423.6 279.3c0.3-2.9 1.6-4 4.1-3.7 0.4 0.1 2.2 3 2.2 3.5s-2.5 2.9-3 2.9c-1.2 0-3.4-1.8-3.3-2.7z"/><path id="path3785" style="fill:#375561" class="st62" d="m436.7 275.5c-1.3 0.1-2.7-1.5-2.8-3.2 0-0.5 2.3-2.7 2.9-2.7s3.1 1.9 3.1 2.4c0 2.6-0.8 3.4-3.2 3.5z"/><path id="path3787" style="fill:#375561" class="st62" d="m452.1 276.5c0 0.4-2.5 2.6-3 2.6-0.6 0-3.1-2.2-3-2.7 0.2-2.6 1-3.4 3.7-3.3 1.1 0.1 2.3 1.9 2.3 3.4z"/></g></g></svg>
