<?xml version="1.0" encoding="UTF-8" standalone="no"?>
<svg xmlns:rdf="http://www.w3.org/1999/02/22-rdf-syntax-ns#" xmlns="http://www.w3.org/2000/svg" height="529.23pt" width="931.99pt" version="1.1" xmlns:cc="http://creativecommons.org/ns#" xmlns:dc="http://purl.org/dc/elements/1.1/" viewBox="0 0 931.98999 529.23077">
 <metadata>
  <rdf:RDF>
   <cc:Work rdf:about="">
    <dc:format>image/svg+xml</dc:format>
    <dc:type rdf:resource="http://purl.org/dc/dcmitype/StillImage"/>
    <dc:title/>
   </cc:Work>
  </rdf:RDF>
 </metadata>
 <g transform="translate(-26.246 -288.72)">
  <path d="m48.406 293.85h927.3v529.23h-927.3v-529.23z" style="fill:#fff"/>
  <path style="fill:#a2d8ec" d="m543.08 297.58c17.94-1.43 36.05-2.4 53.97-0.41 8.09 0.26 15.62 3.7 22.88 6.96 13.58 6.57 26.35 14.67 38.83 23.11 28.59 19.71 56.09 41.06 82.37 63.73 2.68 29.9-2.25 60.06-9.36 89.09-3.83 15.51-8.63 30.76-13.91 45.83-12.63 35.36-28.33 69.61-46.43 102.5-1.09 2.18-2.86 3.91-4.96 5.12-11.43 7.07-22.9 14.15-35.08 19.85-3.03 1.49-6.3 2.44-9.67 2.66 1.39-5.24 5.43-8.98 8.81-12.97-8.58-14.23-13.97-30.06-19.85-45.51-3.17-8.2-5.72-16.61-8.8-24.83-0.63 0.01-1.9 0.03-2.54 0.04-23.88-22.21-54.39-36.1-85.6-44.58-29.54-7.91-60.29-10.85-90.81-10.02-5.55-0.29-8.11 5.75-10.11 9.94-1.79 2.94 0.29 5.93 1.6 8.58 1.78 3.23 3.07 6.75 5.18 9.79 1.49 0.82 3.16 1.24 4.77 1.77-0.11 1.14-0.21 2.29-0.3 3.44-0.52 0.36-1.56 1.07-2.08 1.42-0.03 1.77-0.02 3.54-0.04 5.32-1.63-0.12-3.27-0.28-4.9-0.24-1.08 1.3-1.79 2.86-2.49 4.39-5.47 12.48-11.18 24.86-16.67 37.33-1.54 3.39-3.09 6.78-4.61 10.17-3.47 7.69-6.88 15.4-10.38 23.07-2.57 5.11-3.24 10.87-4.11 16.45 0.35-0.03 1.06-0.09 1.41-0.12 1.74-0.09 3.48-0.36 5.12-0.96-1.67 4.6-6.9 6.07-10.4 9.01-0.81-0.59-1.62-1.17-2.43-1.74-0.66-0.48-1.35-0.91-2.06-1.28-4.51-2.65-8.71-5.87-12.43-9.55-3.33-2.77-1.09-7.42-1.54-11.09 0-3.51-0.12-7.02-0.25-10.52-0.02-0.43-0.06-1.31-0.08-1.74-0.92-20.74-2.34-41.45-3.91-62.15-0.05-2.82-2.4-4.65-4.19-6.5-17.15-16.71-38.02-29.99-61.13-36.65-4.14-1.36-8.67-1.5-12.56-3.61 15.02-5.77 30.71-14.4 37.84-29.58 3.05-5.98 3.2-12.82 2.98-19.37 0.97-1.2 2.11-2.33 2.59-3.84 3.49-9.69 7.04-20.11 15-27.11 1.95 1.37 4.47 5.67 6.99 3.07 0.11-2.15-0.13-4.3-0.31-6.43 1.91-0.76 3.83-1.51 5.57-2.62 0.09-2.42-2.36-3.67-3.75-5.29 1.58-0.85 3.2-1.65 4.66-2.71 0.29-3.26-3.8-4.43-5.96-6.07 1.36-1.52 2.64-3.1 3.86-4.72-0.42-0.5-1.26-1.49-1.68-1.98 3.12-3.82 6.93-7.12 9.39-11.44 1.89-3.41 1.44-7.83-1.45-10.53-1.56-2.83-1.83-6.09-0.57-9.09-6.27-6.84-14-12.16-19.97-19.27 13.94-1.47 27.89-2.83 41.84-4.18 4.94-0.44 8.72-4.01 13.07-6.02 49.12-25.98 103.3-42.59 158.64-47.92z"/>
  <path style="fill:#cdcbfe" d="m181.94 343.84c21.22-12.76 46.24-19.31 71-18.2 10.6 1.07 21.3 2.38 31.34 6.11 6.75 2.78 13.91 4.8 19.89 9.14 0.19 0.39 0.55 1.18 0.73 1.57-2.51 0.97-4.5 2.79-6 4.99-2.61 2.3-2.33 7.39-5.88 8.31-7.21-2.72-13.52-7.55-20.98-9.73-19.33-6.09-40.74-7.61-60.12-0.92-6.99 2.02-13.36 5.55-19.63 9.14-19.93 9.56-36.27 27.44-41.89 49.05-3.25 11.45-1.59 23.47-1.52 35.18-2.68 0.02-5.37 0.05-8.04 0.25-0.18 0.64-0.54 1.91-0.72 2.54-0.3-0.9-0.61-1.8-0.94-2.68-1.45-0.05-2.91-0.09-4.36-0.14-0.64 0.83-1.27 1.66-1.91 2.49-1.48-0.13-2.96-0.25-4.43-0.36 0.14-10.18-1.03-20.5 1.15-30.54 4-17.26 12.74-33.49 25.55-45.79 7.67-8.28 16.87-15.03 26.76-20.41z"/>
  <path style="fill:#fff" d="m211.92 345.11c19.38-6.69 40.79-5.17 60.12 0.92 7.46 2.18 13.77 7.01 20.98 9.73 3.55-0.92 3.27-6.01 5.88-8.31 3.77 2.73 7.86 5.31 10.55 9.2 0.97 1.05 0.27 2.19-0.48 3.1-10.83 4.9-21.82 9.54-32.31 15.12 5.42 1.79 11.36 2.54 16.6-0.29 0.5 0.37 1.51 1.11 2.01 1.48-3.94 1.42-8.05 3.38-12.34 2.34-23.19-4.46-48.32-3.19-69.5 8.03-19.01 10.62-34.29 27.38-44.23 46.66-1.76 3.18-2.56 7.36-6.1 9.12-2.3 0.79-4.58 1.65-6.82 2.62 0.45 1.65 0.91 3.32 1.49 4.94-0.38-0.35-1.14-1.06-1.52-1.41-4.04 1.08-7.87 2.88-12.02 3.58-1.96-3.31-3.24-6.94-4.11-10.67 0.18-0.63 0.54-1.9 0.72-2.54 2.67-0.2 5.36-0.23 8.04-0.25-0.07-11.71-1.73-23.73 1.52-35.18 5.62-21.61 21.96-39.49 41.89-49.05 6.27-3.59 12.64-7.12 19.63-9.14z"/>
  <path style="fill:#8373ff" d="m298.9 347.45c1.5-2.2 3.49-4.02 6-4.99 2.94 2.93 6.49 5.2 9.17 8.4 1.69 2.04 3.52 3.95 5.71 5.46 10.25 9.07 19.85 18.88 30.29 27.74 2.89 2.7 3.34 7.12 1.45 10.53-2.46 4.32-6.27 7.62-9.39 11.44-13.57-12.88-27.3-25.59-40.97-38.36 2.97-2.24 5.57-4.94 7.81-7.92 0.75-0.91 1.45-2.05 0.48-3.1-2.69-3.89-6.78-6.47-10.55-9.2z"/>
  <path style="fill:#cdcbfe" d="m319.78 356.32c3.24-0.34 6.49-0.52 9.75-0.62 5.97 7.11 13.7 12.43 19.97 19.27-1.26 3-0.99 6.26 0.57 9.09-10.44-8.86-20.04-18.67-30.29-27.74z"/>
  <path style="fill:#a2d8ec" d="m276.66 374.87c10.49-5.58 21.48-10.22 32.31-15.12-2.24 2.98-4.84 5.68-7.81 7.92-0.58-0.35-1.74-1.06-2.32-1.42-2.37 2.33-5.98 4.51-5.58 8.33-5.24 2.83-11.18 2.08-16.6 0.29z"/>
  <path style="fill:#292b2b" d="m293.26 374.58c-0.4-3.82 3.21-6 5.58-8.33 0.58 0.36 1.74 1.07 2.32 1.42 13.67 12.77 27.4 25.48 40.97 38.36 0.42 0.49 1.26 1.48 1.68 1.98-1.22 1.62-2.5 3.2-3.86 4.72-0.38 0.39-1.13 1.18-1.51 1.57-0.39 0.07-1.17 0.21-1.56 0.28-4.39-3.47-7.97-7.85-12.4-11.26-2.89-2.65-5.66-5.41-8.53-8.07-7.05-6.23-13.53-13.08-20.68-19.19-0.5-0.37-1.51-1.11-2.01-1.48z"/>
  <path style="fill:#beedff" d="m213.43 386.43c21.18-11.22 46.31-12.49 69.5-8.03 4.29 1.04 8.4-0.92 12.34-2.34 7.15 6.11 13.63 12.96 20.68 19.19-1.65 4.96 5.14 6.62 8.53 8.07 4.43 3.41 8.01 7.79 12.4 11.26 0.39-0.07 1.17-0.21 1.56-0.28 1.81 1.05 3.48 2.31 5.11 3.62-2.41 0.81-4.91 1.56-6.83 3.33 1.94 1.45 3.88 2.9 5.78 4.41-1.8 0.81-3.61 1.62-5.41 2.42 0.21 2.04 0.43 4.09 0.71 6.13-1.81-1.61-3.49-3.36-5.39-4.86-6.02 6.47-10.86 13.96-13.85 22.3-1.14 3.07-2.02 6.29-4.07 8.92-1.52-4.33-2.93-8.74-5.47-12.6-0.41 0.29-1.23 0.87-1.64 1.15 6.15 10.33 7.82 23.51 2.47 34.53-6.75 11.98-18.78 19.76-31.13 25.05-9.63 4.05-20.82 3.83-30.43-0.14-2.47-1.08-5.07-1.9-7.8-1.63 3.4 2.44 7.45 3.64 11.13 5.56-15.52 5.02-31.97 8.2-48.32 6.69-0.68 1.73-0.97 3.59-1.54 5.38-1.05-1.46-2.01-2.97-3.19-4.32-1.18 0.58-2.29 1.27-3.42 1.93-0.11-0.73-0.32-2.18-0.43-2.91-0.51-0.03-1.53-0.09-2.04-0.13-0.6 0.85-1.8 2.54-2.4 3.38 0.25-3.85 1.15-7.86-0.16-11.6-3.33-10.47-6.74-20.92-9.85-31.45-0.78-0.74-1.56-1.46-2.3-2.22-4.26-11.58-7.75-23.47-12.38-34.89-0.62-0.04-1.86-0.11-2.49-0.14 3.54-1.76 4.34-5.94 6.1-9.12 9.94-19.28 25.22-36.04 44.23-46.66z"/>
  <path style="fill:#a5b2d6" d="m334.32 376.26c0.96-1.37 3.67 0.03 2.52 1.56-0.97 1.34-3.68-0.05-2.52-1.56z"/>
  <path style="fill:#fff" d="m315.95 395.25c2.87 2.66 5.64 5.42 8.53 8.07-3.39-1.45-10.18-3.11-8.53-8.07z"/>
  <path style="fill:#fff" d="m338.44 414.3c0.38-0.39 1.13-1.18 1.51-1.57 2.16 1.64 6.25 2.81 5.96 6.07-1.46 1.06-3.08 1.86-4.66 2.71 1.39 1.62 3.84 2.87 3.75 5.29-1.74 1.11-3.66 1.86-5.57 2.62 0.18 2.13 0.42 4.28 0.31 6.43-2.52 2.6-5.04-1.7-6.99-3.07-7.96 7-11.51 17.42-15 27.11-0.48 1.51-1.62 2.64-2.59 3.84 0.22 6.55 0.07 13.39-2.98 19.37-0.58 0.14-1.75 0.41-2.33 0.55 5.35-11.02 3.68-24.2-2.47-34.53 0.41-0.28 1.23-0.86 1.64-1.15 2.54 3.86 3.95 8.27 5.47 12.6 2.05-2.63 2.93-5.85 4.07-8.92 2.99-8.34 7.83-15.83 13.85-22.3 1.9 1.5 3.58 3.25 5.39 4.86-0.28-2.04-0.5-4.09-0.71-6.13 1.8-0.8 3.61-1.61 5.41-2.42-1.9-1.51-3.84-2.96-5.78-4.41 1.92-1.77 4.42-2.52 6.83-3.33-1.63-1.31-3.3-2.57-5.11-3.62z"/>
  <path d="m293.32 425.38c0.47-0.12 1.4-0.37 1.87-0.49-0.75 2.73-3.02 4.65-4.18 7.18-1.68 3.12-1.81 6.72-2.2 10.16-0.42-0.18-1.26-0.53-1.68-0.7-0.55-5.9 1.86-12.13 6.19-16.15z"/>
  <path style="fill:#8373ff" d="m132.91 440.94c0.64-0.83 1.27-1.66 1.91-2.49 1.45 0.05 2.91 0.09 4.36 0.14 0.33 0.88 0.64 1.78 0.94 2.68 0.87 3.73 2.15 7.36 4.11 10.67 4.15-0.7 7.98-2.5 12.02-3.58 0.38 0.35 1.14 1.06 1.52 1.41 5.83 16.87 11.73 33.72 17.45 50.63-4.64 1.63-9.24 3.7-14.2 4.11-3.7 0.45-7.57-1.81-8.85-5.34-3.94-13.5-9.25-26.57-13.18-40.08-2.07-6.03-5.34-11.69-6.08-18.15z"/>
  <path style="fill:#292b2b" d="m156.28 444.83c2.24-0.97 4.52-1.83 6.82-2.62 0.63 0.03 1.87 0.1 2.49 0.14 4.63 11.42 8.12 23.31 12.38 34.89 2.61 7.42 5.06 14.9 7.82 22.27-2.95 1.39-6.02 3.3-9.41 2.97l-1.16-2.08c-5.72-16.91-11.62-33.76-17.45-50.63-0.58-1.62-1.04-3.29-1.49-4.94z"/>
  <path style="fill:#f26c4f" d="m48.01 456c30 3.03 59.97 6.45 89.99 9.23-1.2 0.83-2.35 1.74-3.53 2.6 3.17 9.04 6.08 18.18 9.47 27.15 1.35-0.1 2.69-0.21 4.04-0.3 1.37 1.52 2.76 3.02 4.19 4.49 1.28 3.53 5.15 5.79 8.85 5.34 4.96-0.41 9.56-2.48 14.2-4.11l1.16 2.08c3.39 0.33 6.46-1.58 9.41-2.97-2.76-7.37-5.21-14.85-7.82-22.27 0.74 0.76 1.52 1.48 2.3 2.22 3.11 10.53 6.52 20.98 9.85 31.45 1.31 3.74 0.41 7.75 0.16 11.6 0.6-0.84 1.8-2.53 2.4-3.38 0.51 0.04 1.53 0.1 2.04 0.13 0.11 0.73 0.32 2.18 0.43 2.91 1.13-0.66 2.24-1.35 3.42-1.93 1.18 1.35 2.14 2.86 3.19 4.32 0.57-1.79 0.86-3.65 1.54-5.38 16.35 1.51 32.8-1.67 48.32-6.69-3.68-1.92-7.73-3.12-11.13-5.56 2.73-0.27 5.33 0.55 7.8 1.63 9.61 3.97 20.8 4.19 30.43 0.14 12.35-5.29 24.38-13.07 31.13-25.05 0.58-0.14 1.75-0.41 2.33-0.55-7.13 15.18-22.82 23.81-37.84 29.58 3.89 2.11 8.42 2.25 12.56 3.61 23.11 6.66 43.98 19.94 61.13 36.65 1.79 1.85 4.14 3.68 4.19 6.5 1.57 20.7 2.99 41.41 3.91 62.15-3.86 2.29-7.66 4.68-11.5 7.02-0.03 0.02-0.08 0.05-0.1 0.07-0.75 0.45-2.25 1.36-2.99 1.82-0.03 0.01-0.07 0.04-0.1 0.05-2.67 1.64-5.77 3-7.24 5.96 4.39 7.27 9.04 14.39 13.2 21.81-9.09-2.98-17.91-6.71-26.88-10.01-5.5-2.08-11-4.17-16.49-6.26-19.43-7.38-38.86-14.77-58.29-22.15-14.56-5.54-29.13-11.05-43.68-16.59-28.66-10.9-57.32-21.79-85.98-32.67-5.32-2.04-10.65-4.06-15.98-6.07-18.03-6.87-36.06-13.72-54.1-20.56 0.67-29.34 1.33-58.67 2.01-88.01z"/>
  <path style="fill:#cdcbfe" d="m136.14 460.22c0.95-0.38 1.9-0.76 2.85-1.13 3.93 13.51 9.24 26.58 13.18 40.08-1.43-1.47-2.82-2.97-4.19-4.49-1.35 0.09-2.69 0.2-4.04 0.3-3.39-8.97-6.3-18.11-9.47-27.15 1.18-0.86 2.33-1.77 3.53-2.6-0.55-1.7-1.16-3.37-1.86-5.01z"/>
  <path style="fill:#497484" d="m264.78 485.8c3.75-5.38 10.08-9.17 16.67-9.48-3.13 1.17-6.94 2.98-7.47 6.7-0.08 2.57 3.07 3.26 5.08 2.9 4.52-0.51 10.08-4.09 8.6-9.34 1.5 1.48 3.46 2.98 3.33 5.34-0.29 5.69-5.24 9.79-9.89 12.34-4.69 2.37-10.79 4.09-15.64 1.26-3.42-2.1-2.75-6.9-0.68-9.72z"/>
  <path style="fill:#f4f3f6" d="m281.45 476.32c2.07-0.14 4.15 0.12 6.21 0.26 1.48 5.25-4.08 8.83-8.6 9.34-2.01 0.36-5.16-0.33-5.08-2.9 0.53-3.72 4.34-5.53 7.47-6.7z"/>
  <path d="m209.52 479.49c5.56-2.74 12.63-3.66 18.13-0.31 0.09 0.49 0.28 1.47 0.37 1.96-2.98-0.83-5.91-2.24-9.09-1.98-3.89 0.01-7.34 1.96-11.01 2.97-0.04-1.3 0.49-2.18 1.6-2.64z"/>
  <path style="fill:#9ea7dd" d="m151.92 479.05c2.27-0.76 4.23 0.93 3.37 3.29-1.85-0.11-4.37-0.89-3.37-3.29z"/>
  <path style="fill:#f26c4f" d="m412.82 528.09c2-4.19 4.56-10.23 10.11-9.94 30.52-0.83 61.27 2.11 90.81 10.02 31.21 8.48 61.72 22.37 85.6 44.58 0.64-0.01 1.91-0.03 2.54-0.04 3.08 8.22 5.63 16.63 8.8 24.83 5.88 15.45 11.27 31.28 19.85 45.51-3.38 3.99-7.42 7.73-8.81 12.97 3.37-0.22 6.64-1.17 9.67-2.66 12.18-5.7 23.65-12.78 35.08-19.85 2.1-1.21 3.87-2.94 4.96-5.12 18.1-32.89 33.8-67.14 46.43-102.5 86.04-1.01 172.08-2.63 258.13-3.9 0.69 88.67 1.35 177.35 2 266.02-128.34-32.43-256.7-64.83-385.05-97.24-4.94-1.2-9.81-2.74-14.88-3.29-71.01-8.92-141.98-18.17-213.01-26.96 2.58-1.41 5.11-2.95 7.44-4.75 0.81 0.57 1.62 1.15 2.43 1.74 3.5-2.94 8.73-4.41 10.4-9.01 8.96-6.27 18.69-11.4 27.82-17.42 1.61-0.86 2.53-2.86 1.19-4.39-5.45-8.95-10.88-17.92-16.44-26.8 5.49-12.47 11.2-24.85 16.67-37.33 0.7-1.53 1.41-3.09 2.49-4.39 1.63-0.04 3.27 0.12 4.9 0.24 0.02-1.78 0.01-3.55 0.04-5.32 0.52-0.35 1.56-1.06 2.08-1.42 0.09-1.15 0.19-2.3 0.3-3.44-1.61-0.53-3.28-0.95-4.77-1.77-2.11-3.04-3.4-6.56-5.18-9.79-1.31-2.65-3.39-5.64-1.6-8.58z"/>
  <path style="fill:#fff" d="m116.08 570.64c28.66 10.88 57.32 21.77 85.98 32.67 3.28 19.2 6.65 38.39 9.9 57.6 7.28 4.78 14.68 9.36 22 14.07 2.34-1.31 5.36-1.97 7.08-4.07-2.8-1.74-5.99-2.68-9.03-3.9 5.4-15.45 9.23-31.38 13.73-47.11 19.43 7.38 38.86 14.77 58.29 22.15-0.11 18.98 0.06 37.96-0.06 56.94-62.65 0.01-125.29 0.02-187.93-0.01-0.04-42.78-0.11-85.56 0.04-128.34z"/>
  <path style="fill:#fff" d="m393.28 610.06c1.52-3.39 3.07-6.78 4.61-10.17 5.56 8.88 10.99 17.85 16.44 26.8 1.34 1.53 0.42 3.53-1.19 4.39-9.13 6.02-18.86 11.15-27.82 17.42-1.64 0.6-3.38 0.87-5.12 0.96 8.91-5.23 17.64-10.78 26.49-16.13l-3.9206-3.1179c-4.71-7.67-4.9-12.41-9.49-20.15z"/>
  <path style="fill:#6eb1ca" d="m202.06 603.31c14.55 5.54 29.12 11.05 43.68 16.59-4.5 15.73-8.33 31.66-13.73 47.11 3.04 1.22 6.23 2.16 9.03 3.9-1.72 2.1-4.74 2.76-7.08 4.07-7.32-4.71-14.72-9.29-22-14.07-3.25-19.21-6.62-38.4-9.9-57.6z"/>
  <path style="fill:#1f1f1f" d="m382.9 633.13c3.5-7.67 6.91-15.38 10.38-23.07 4.59 7.74 4.8269 14.335 9.5369 22.005l-0.64 0.22c-7.93-0.44-11.36 1.26-19.28 0.85z"/>
  <path style="fill:#e3cb6b" d="m398.95 614.99c1.23-1.32 2.7298-2.1968 4.49-2.86 1.4071 1.4366 2.0802 2.6829 2.82 4.74-1.2165 1.3537-2.6031 2.3904-4.3199 2.8502-1.64-0.66-2.9101-2.9902-2.9901-4.7302z"/>
  <path style="fill:#fdfcf7" d="m399.95 615.43c1.14-0.58673 2.14-1.1899 3.2133-1.79 0.65589 1.0954 0.76678 1.258 1.6779 2.8361-0.99188 0.68975-2.0633 1.3022-3.0847 1.9531-0.64255-1.1071-1.4666-2.4225-1.8064-2.9992z"/>
  <path style="fill:#1f1f1f" d="m339.24 633.78c5.61-3.57 11.31-6.97 16.97-10.45 0.13 3.5 0.25 7.01 0.25 10.52-5.74 0.1-11.49 0.25-17.22-0.07z"/>
  <path style="fill:#948e8d" d="m344.53 628.68c0.02-0.02 0.07-0.05 0.1-0.07-0.03 0.02-0.08 0.05-0.1 0.07z"/>
  <path style="fill:#a6a6a6" d="m341.44 630.55c0.03-0.01 0.07-0.04 0.1-0.05-0.03 0.01-0.07 0.04-0.1 0.05z"/>
  <path d="m393.23 609.95c5.3072 8.9136 9.2795 15.288 13.979 23.044-8.85 5.35-18.103 11.233-27.013 16.463-0.35 0.03-1.06 0.09-1.41 0.12 0.96501-14.844 9.8782-27.771 14.443-39.627z"/>
  <path d="m339.24 633.78c4.6217-2.9042 11.262-6.9826 17.002-10.407 1.87 3.45-1.57 18.8 1.76 21.57 3.72 3.68 8.8875 7.4338 13.397 10.084-2.6154 1.631 0.36697-0.23353-1.7742 1.1395-4.01 2.44-8.12 4.92-12.21 7.36-6.01-9.94-12.09-19.84-18.17-29.74z"/>
  <path style="fill:#292b2b" d="m344.15 646.97c1.54 2.16 2.96 4.42 3.87 6.91-0.8-0.91-1.56-1.83-2.29-2.77-0.56-1.38-1.1-2.74-1.58-4.14z"/>
 </g>
</svg>
