<?xml version="1.0" encoding="utf-8"?><svg id="Layer_1" data-name="Layer 1" xmlns="http://www.w3.org/2000/svg" viewBox="0 0 724.89 402">
  <defs>
    <style>
      .cls-1 {
        fill: #cdcbfe;
      }

      .cls-2, .cls-4 {
        fill: none;
      }

      .cls-3 {
        isolation: isolate;
        font-size: 35.69px;
        font-family: LemonMilk, Lemon/Milk;
      }

      .cls-10, .cls-3 {
        fill: #fff;
      }

      .cls-4 {
        stroke: #cdcbfe;
        stroke-miterlimit: 10;
        stroke-width: 6px;
      }

      .cls-5 {
        fill: #a2d8ec;
      }

      .cls-6 {
        fill: #8373ff;
      }

      .cls-7 {
        fill: #292b2b;
      }

      .cls-8 {
        fill: #beedff;
      }

      .cls-9 {
        fill: #a5b2d6;
      }

      .cls-11 {
        fill: #f26c4f;
      }

      .cls-12 {
        fill: #497484;
      }

      .cls-13 {
        fill: #f4f3f6;
      }

      .cls-14 {
        fill: #9ea7dd;
      }

      .cls-15 {
        fill: #6eb1ca;
      }

      .cls-16 {
        fill: #1f1f1f;
      }

      .cls-17 {
        fill: #e3cb6b;
      }

      .cls-18 {
        fill: #fdfcf7;
      }

      .cls-19 {
        fill: #948e8d;
      }

      .cls-20 {
        fill: #a6a6a6;
      }
    </style>
  </defs>
  <title>SleepingBear</title>
  <g id="applyGroup">
    <rect class="cls-1" x="232.87" y="320.51" width="241.02" height="64.68"/>
    <rect class="cls-2" x="295.02" y="338.36" width="122.67" height="71.37"/>
    <text class="cls-3" transform="translate(315.96 366.39)">Info</text>
  </g>
  <line class="cls-4" x1="280.9" y1="290.03" x2="280.9" y2="335.98"/>
  <line class="cls-4" x1="423.49" y1="290.03" x2="423.49" y2="335.98"/>
  <g>
    <path class="cls-5" d="M389.13,12.16c13.9-1.1,27.94-1.85,41.82-.32,6.27.2,12.1,2.85,17.73,5.36A243.76,243.76,0,0,1,478.78,35,746.21,746.21,0,0,1,542.61,84.1c2.08,23-1.74,46.26-7.25,68.62-3,11.95-6.69,23.69-10.78,35.3a540.94,540.94,0,0,1-36,79,9.55,9.55,0,0,1-3.84,3.94c-8.86,5.45-17.75,10.9-27.19,15.29a20,20,0,0,1-7.49,2c1.08-4,4.21-6.92,6.83-10-6.65-11-10.83-23.15-15.38-35.05-2.46-6.32-4.43-12.79-6.82-19.13l-2,0c-18.51-17.11-42.15-27.81-66.34-34.34-22.89-6.09-46.72-8.36-70.37-7.72-4.3-.22-6.28,4.43-7.83,7.66-1.39,2.26.22,4.57,1.24,6.61,1.38,2.49,2.38,5.2,4,7.54a21.45,21.45,0,0,0,3.7,1.36c-.09.88-.16,1.76-.23,2.65L295.29,209c0,1.36,0,2.73,0,4.1-1.26-.09-2.53-.22-3.8-.18a14.77,14.77,0,0,0-1.93,3.38c-4.24,9.61-8.66,19.15-12.92,28.75-1.19,2.61-2.39,5.22-3.57,7.83-2.69,5.92-5.33,11.86-8,17.77-2,3.94-2.51,8.37-3.19,12.67l1.09-.09a13.64,13.64,0,0,0,4-.74c-1.29,3.54-5.35,4.68-8.06,6.94l-1.88-1.34a12.72,12.72,0,0,0-1.6-1,49.05,49.05,0,0,1-9.63-7.36c-2.58-2.13-.84-5.72-1.19-8.54,0-2.7-.09-5.41-.19-8.1l-.06-1.34c-.71-16-1.81-31.93-3-47.87,0-2.17-1.86-3.58-3.25-5-13.29-12.87-29.46-23.1-47.37-28.23-3.21-1-6.72-1.16-9.73-2.78,11.64-4.44,23.8-11.09,29.32-22.78,2.36-4.61,2.48-9.87,2.31-14.92a9.58,9.58,0,0,0,2-3c2.7-7.46,5.46-15.49,11.62-20.88,1.51,1.06,3.46,4.37,5.42,2.36a36.43,36.43,0,0,0-.24-5,25.28,25.28,0,0,0,4.32-2c.07-1.86-1.83-2.83-2.91-4.07a31.12,31.12,0,0,0,3.61-2.09c.22-2.51-2.94-3.41-4.62-4.68,1.05-1.17,2-2.39,3-3.64l-1.3-1.53c2.42-2.94,5.37-5.48,7.28-8.81a6.67,6.67,0,0,0-1.12-8.11,7.9,7.9,0,0,1-.44-7c-4.86-5.27-10.85-9.37-15.48-14.84,10.8-1.13,21.61-2.18,32.42-3.22,3.83-.34,6.76-3.09,10.13-4.64A333.57,333.57,0,0,1,389.13,12.16Z"/>
    <path class="cls-1" d="M109.27,47.8a99.5,99.5,0,0,1,55-14c8.21.82,16.51,1.83,24.29,4.71,5.23,2.14,10.78,3.7,15.41,7,.15.3.43.91.57,1.21a10.1,10.1,0,0,0-4.65,3.84c-2,1.77-1.81,5.69-4.56,6.4-5.59-2.1-10.48-5.82-16.26-7.49-15-4.69-31.57-5.86-46.59-.71-5.42,1.56-10.35,4.27-15.21,7-15.44,7.36-28.11,21.14-32.46,37.78-2.52,8.82-1.23,18.08-1.18,27.1-2.08,0-4.16,0-6.23.19l-.56,2c-.23-.69-.47-1.39-.73-2.06l-3.38-.11-1.48,1.92-3.43-.28c.11-7.84-.8-15.79.89-23.52a71.17,71.17,0,0,1,19.8-35.27A80.59,80.59,0,0,1,109.27,47.8Z"/>
    <path class="cls-6" d="M199.91,50.58a10.1,10.1,0,0,1,4.65-3.84c2.28,2.26,5,4,7.11,6.47a22.18,22.18,0,0,0,4.42,4.21c7.94,7,15.38,14.54,23.47,21.37a6.67,6.67,0,0,1,1.12,8.11c-1.91,3.33-4.86,5.87-7.28,8.81C222.89,85.78,212.25,76,201.66,66.15a30.8,30.8,0,0,0,6.05-6.1c.58-.7,1.12-1.58.37-2.39-2.08-3-5.25-5-8.18-7.09Z"/>
    <path class="cls-1" d="M216.09,57.41c2.51-.26,5-.4,7.56-.48,4.63,5.48,10.62,9.57,15.48,14.84a7.9,7.9,0,0,0,.44,7C231.47,72,224,64.39,216.09,57.41Z"/>
    <path class="cls-5" d="M182.67,71.7c8.13-4.3,16.65-7.87,25-11.65a30.8,30.8,0,0,1-6.05,6.1l-1.8-1.09c-1.84,1.79-4.63,3.47-4.32,6.42C191.47,73.65,186.87,73.07,182.67,71.7Z"/>
    <path class="cls-7" d="M195.53,71.47c-.31-2.94,2.49-4.62,4.32-6.42l1.8,1.09C212.25,76,222.89,85.78,233.41,95.7l1.3,1.53c-.95,1.25-1.94,2.46-3,3.64l-1.17,1.21-1.21.22c-3.4-2.67-6.18-6-9.61-8.67-2.24-2-4.39-4.17-6.61-6.22-5.46-4.8-10.49-10.07-16-14.78l-1.56-1.14Z"/>
    <path class="cls-8" d="M133.67,80.6C150.08,72,169.56,71,187.53,74.42c3.32.8,6.51-.71,9.56-1.8,5.54,4.71,10.56,10,16,14.78-1.28,3.82,4,5.1,6.61,6.22,3.43,2.63,6.21,6,9.61,8.67l1.21-.22a32.08,32.08,0,0,1,4,2.79,14,14,0,0,0-5.29,2.56c1.5,1.12,3,2.23,4.48,3.4l-4.19,1.86c.16,1.57.33,3.15.55,4.72-1.4-1.24-2.7-2.59-4.18-3.74a50.16,50.16,0,0,0-10.73,17.18c-.88,2.36-1.57,4.84-3.15,6.87-1.18-3.34-2.27-6.73-4.24-9.71l-1.27.89c4.77,8,6.06,18.11,1.91,26.6-5.23,9.23-14.55,15.22-24.12,19.29a31.17,31.17,0,0,1-23.58-.11,12.19,12.19,0,0,0-6-1.26c2.63,1.88,5.77,2.8,8.63,4.28-12,3.87-24.78,6.32-37.45,5.15-.53,1.33-.75,2.77-1.19,4.14-.81-1.12-1.56-2.29-2.47-3.33-.91.45-1.77,1-2.65,1.49-.09-.56-.25-1.68-.33-2.24l-1.58-.1-1.86,2.6c.19-3,.89-6.05-.12-8.93-2.58-8.06-5.22-16.11-7.63-24.22-.6-.57-1.21-1.12-1.78-1.71-3.3-8.92-6-18.08-9.59-26.87l-1.93-.11c2.74-1.36,3.36-4.58,4.73-7,7.7-14.85,19.54-27.76,34.28-35.94Z"/>
    <path class="cls-9" d="M227.35,72.77c.74-1.06,2.84,0,2,1.2S226.46,73.93,227.35,72.77Z"/>
    <path class="cls-10" d="M213.12,87.39c2.22,2,4.37,4.17,6.61,6.22C217.1,92.49,211.84,91.21,213.12,87.39Z"/>
    <path class="cls-10" d="M230.55,102.07l1.17-1.21c1.67,1.26,4.84,2.16,4.62,4.68a31.12,31.12,0,0,1-3.61,2.09c1.08,1.25,3,2.21,2.91,4.07a25.28,25.28,0,0,1-4.32,2,36.43,36.43,0,0,1,.24,5c-2,2-3.91-1.31-5.42-2.36-6.17,5.39-8.92,13.42-11.62,20.88a9.58,9.58,0,0,1-2,3c.17,5,.05,10.31-2.31,14.92l-1.81.42c4.15-8.49,2.85-18.64-1.91-26.6l1.27-.89c2,3,3.06,6.37,4.24,9.71,1.59-2,2.27-4.51,3.15-6.87a50.16,50.16,0,0,1,10.73-17.18c1.47,1.16,2.77,2.5,4.18,3.74-.22-1.57-.39-3.15-.55-4.72l4.19-1.86c-1.47-1.16-3-2.28-4.48-3.4a14,14,0,0,1,5.29-2.56,32.08,32.08,0,0,0-4-2.79Z"/>
    <path d="M195.58,110.6l1.45-.38c-.58,2.1-2.34,3.58-3.24,5.53-1.3,2.4-1.4,5.18-1.7,7.83l-1.3-.54A15.39,15.39,0,0,1,195.58,110.6Z"/>
    <path class="cls-6" d="M71.27,122.59l1.48-1.92,3.38.11c.26.68.5,1.37.73,2.06A28.8,28.8,0,0,0,80,131.06c3.22-.54,6.18-1.93,9.31-2.76l1.18,1.09c4.52,13,9.09,26,13.52,39-3.6,1.26-7.16,2.85-11,3.17a6.61,6.61,0,0,1-6.86-4.11C83.14,157,79,147,76,136.57c-1.6-4.64-4.14-9-4.71-14Z"/>
    <path class="cls-7" d="M89.38,125.58c1.74-.75,3.5-1.41,5.29-2l1.93.11c3.59,8.8,6.29,18,9.59,26.87,2,5.72,3.92,11.48,6.06,17.15-2.29,1.07-4.67,2.54-7.29,2.29l-.9-1.6c-4.43-13-9-26-13.52-39-.45-1.25-.81-2.53-1.15-3.81Z"/>
    <path class="cls-11" d="M5.48,134.19c23.25,2.33,46.47,5,69.74,7.11-.93.64-1.82,1.34-2.74,2,2.46,7,4.71,14,7.34,20.91l3.13-.23c1.06,1.17,2.14,2.33,3.25,3.46a6.61,6.61,0,0,0,6.86,4.11c3.84-.32,7.41-1.91,11-3.17l.9,1.6c2.63.25,5-1.22,7.29-2.29-2.14-5.68-4-11.44-6.06-17.15.57.59,1.18,1.14,1.78,1.71,2.41,8.11,5.05,16.16,7.63,24.22,1,2.88.32,6,.12,8.93l1.86-2.6,1.58.1c.09.56.25,1.68.33,2.24.88-.51,1.74-1,2.65-1.49.91,1,1.66,2.2,2.47,3.33.44-1.38.67-2.81,1.19-4.14,12.67,1.16,25.42-1.29,37.45-5.15-2.85-1.48-6-2.4-8.63-4.28a12.19,12.19,0,0,1,6,1.26,31.17,31.17,0,0,0,23.58.11c9.57-4.07,18.89-10.07,24.12-19.29l1.81-.42c-5.53,11.69-17.68,18.34-29.32,22.78,3,1.63,6.53,1.73,9.73,2.78,17.91,5.13,34.08,15.36,47.37,28.23,1.39,1.42,3.21,2.83,3.25,5,1.22,15.94,2.32,31.9,3,47.87-3,1.76-5.94,3.6-8.91,5.41l-.08.05-2.32,1.4-.08,0c-2.07,1.26-4.47,2.31-5.61,4.59,3.4,5.6,7,11.08,10.23,16.8-7-2.3-13.88-5.17-20.83-7.71l-12.78-4.82-45.17-17.06q-16.92-6.4-33.85-12.78L58.23,222.49C25.88,210.16,12.15,165.44,5.48,134.19Z"/>
    <path class="cls-1" d="M73.77,137.44l2.21-.87C79,147,83.14,157,86.2,167.44c-1.11-1.13-2.19-2.29-3.25-3.46l-3.13.23c-2.63-6.91-4.88-13.95-7.34-20.91.91-.66,1.81-1.36,2.74-2-.43-1.31-.9-2.6-1.44-3.86Z"/>
    <path class="cls-12" d="M173.46,157.14a17.22,17.22,0,0,1,12.92-7.3c-2.43.9-5.38,2.3-5.79,5.16-.06,2,2.38,2.51,3.94,2.23,3.5-.39,7.81-3.15,6.66-7.19,1.16,1.14,2.68,2.3,2.58,4.11-.22,4.38-4.06,7.54-7.66,9.5s-8.36,3.15-12.12,1c-2.65-1.62-2.13-5.31-.53-7.49Z"/>
    <path class="cls-13" d="M186.38,149.84a35.87,35.87,0,0,1,4.81.2c1.15,4-3.16,6.8-6.66,7.19-1.56.28-4-.25-3.94-2.23C181,152.13,184,150.74,186.38,149.84Z"/>
    <path d="M130.64,152.28c4.31-2.11,9.79-2.82,14-.24.07.38.22,1.13.29,1.51-2.31-.64-4.58-1.73-7-1.53-3,0-5.69,1.51-8.53,2.29a1.93,1.93,0,0,1,1.24-2Z"/>
    <path class="cls-14" d="M86,151.94c1.76-.59,3.28.72,2.61,2.53C87.18,154.39,85.23,153.79,86,151.94Z"/>
    <path class="cls-11" d="M288.19,189.71c1.55-3.23,3.53-7.88,7.83-7.66,23.65-.64,47.48,1.63,70.37,7.72,24.19,6.53,47.83,17.23,66.34,34.34l2,0c2.39,6.33,4.36,12.81,6.82,19.13,4.56,11.9,8.73,24.09,15.38,35.05-2.62,3.07-5.75,6-6.83,10a20,20,0,0,0,7.49-2c9.44-4.39,18.33-9.84,27.19-15.29A9.55,9.55,0,0,0,488.6,267a540.94,540.94,0,0,0,36-79c66.68-.78,133.35-2,200-3q.8,102.45,1.55,204.9Q577,352.45,427.77,315c-3.83-.92-7.6-2.11-11.53-2.53-55-6.87-110-14-165.07-20.77a43.55,43.55,0,0,0,5.77-3.66l1.88,1.34c2.71-2.26,6.77-3.4,8.06-6.94,6.94-4.83,14.48-8.78,21.56-13.42,1.25-.66,2-2.2.92-3.38-4.22-6.89-8.43-13.8-12.74-20.64,4.25-9.6,8.68-19.14,12.92-28.75a14.77,14.77,0,0,1,1.93-3.38c1.26,0,2.53.09,3.8.18,0-1.37,0-2.73,0-4.1l1.61-1.09c.07-.89.15-1.77.23-2.65a21.45,21.45,0,0,1-3.7-1.36c-1.64-2.34-2.63-5.05-4-7.54-1-2-2.63-4.34-1.24-6.61Z"/>
    <path class="cls-10" d="M273,252.85c1.18-2.61,2.38-5.22,3.57-7.83,4.31,6.84,8.52,13.75,12.74,20.64,1,1.18.33,2.72-.92,3.38-7.08,4.64-14.62,8.59-21.56,13.42a13.64,13.64,0,0,1-4,.74c6.9-4,13.67-8.3,20.53-12.42l-3-2.4c-3.65-5.91-3.8-9.56-7.35-15.52Z"/>
    <path class="cls-15" d="M124.86,247.65q16.91,6.4,33.85,12.78c-3.49,12.12-6.46,24.39-10.64,36.29a43.87,43.87,0,0,1,7,3c-1.33,1.62-3.67,2.13-5.49,3.13-5.67-3.63-11.41-7.16-17-10.84-2.52-14.8-5.13-29.58-7.67-44.37Z"/>
    <path class="cls-16" d="M265,270.62c2.71-5.91,5.35-11.85,8-17.77,3.56,6,3.74,11,7.39,16.95l-.5.17c-6.15-.34-8.8,1-14.94.65Z"/>
    <path class="cls-17" d="M277.44,256.65a8.85,8.85,0,0,1,3.48-2.2,8.88,8.88,0,0,1,2.19,3.65,6.92,6.92,0,0,1-3.35,2.2A4.51,4.51,0,0,1,277.44,256.65Z"/>
    <path class="cls-18" d="M278.21,257c.88-.45,1.66-.92,2.49-1.38.51.84.59,1,1.3,2.18-.77.53-1.6,1-2.39,1.5-.5-.85-1.14-1.87-1.4-2.31Z"/>
    <path class="cls-16" d="M231.17,271.12c4.35-2.75,8.76-5.37,13.15-8,.1,2.7.19,5.4.19,8.1C240.06,271.25,235.61,271.37,231.17,271.12Z"/>
    <path class="cls-19" d="M235.27,267.19l.08-.05Z"/>
    <path class="cls-20" d="M232.87,268.63l.08,0Z"/>
    <path d="M273,252.77c4.11,6.87,7.19,11.78,10.83,17.75-6.86,4.12-14,8.65-20.93,12.68l-1.09.09c.75-11.43,7.66-21.39,11.19-30.52Z"/>
    <path d="M231.17,271.12c3.58-2.24,8.73-5.38,13.18-8,1.45,2.66-1.22,14.48,1.36,16.61a56.14,56.14,0,0,0,10.38,7.77c-2,1.26.28-.18-1.37.88-3.11,1.88-6.29,3.79-9.46,5.67q-7-11.48-14.08-22.91Z"/>
    <path class="cls-7" d="M235,281.28a22.72,22.72,0,0,1,3,5.32c-.62-.7-1.21-1.41-1.77-2.13-.43-1.06-.85-2.11-1.22-3.19Z"/>
  </g>
</svg>
